<svg xmlns="http://www.w3.org/2000/svg" xmlns:xlink="http://www.w3.org/1999/xlink"><defs><symbol fill="none" viewBox="0 0 43 33" id="badge_1"><g clip-path="url(#badge_1_a)"><path fill-rule="evenodd" clip-rule="evenodd" d="M41.87 15.905a21.804 21.804 0 00-1.064-2.313 20.772 20.772 0 00.937-11.238l-.01-.052A20.512 20.512 0 0041.14 0l-7.815 5.457A21.815 21.815 0 0021.45 1.963 21.815 21.815 0 009.575 5.457L1.76 0c-.24.75-.439 1.518-.593 2.302l-.01.052a20.774 20.774 0 00.937 11.238A21.754 21.754 0 000 19.36a23.624 23.624 0 004.345 6.334c.524.548 1.074 1.07 1.648 1.565l2.193-1.53-.172 3.09A23.574 23.574 0 0021.45 33a23.575 23.575 0 0013.438-4.18l-.172-3.09 2.19 1.53a23.82 23.82 0 004.188-4.713A23.645 23.645 0 0042.9 19.36a21.761 21.761 0 00-1.03-3.455z" fill="#2AC45E"/><g filter="url(#badge_1_b)"><path d="M26.94 15.137a.576.576 0 00-.222-.229.633.633 0 00-.318-.084h-3.091l1.283-7.173a.526.526 0 00-.065-.358.586.586 0 00-.286-.246.641.641 0 00-.388-.03c-.13.03-.245.1-.327.199l-8.4 10.059a.525.525 0 00-.065.588c.05.094.126.173.221.229a.634.634 0 00.318.085h3.091l-1.283 7.173a.525.525 0 00.064.357c.064.11.165.196.287.246.122.05.259.06.388.03a.6.6 0 00.326-.198l8.4-10.06a.526.526 0 00.066-.589z" fill="url(#badge_1_c)"/></g></g><defs><filter id="badge_1_b" x="12" y="6" width="18" height="25" filterUnits="userSpaceOnUse" color-interpolation-filters="sRGB"><feFlood flood-opacity="0" result="BackgroundImageFix"/><feColorMatrix in="SourceAlpha" values="0 0 0 0 0 0 0 0 0 0 0 0 0 0 0 0 0 0 127 0"/><feOffset dy="2"/><feGaussianBlur stdDeviation="1.5"/><feColorMatrix values="0 0 0 0 0.095625 0 0 0 0 0.675 0 0 0 0 0.258782 0 0 0 1 0"/><feBlend in2="BackgroundImageFix" result="effect1_dropShadow"/><feBlend in="SourceGraphic" in2="effect1_dropShadow" result="shape"/></filter></defs></symbol><symbol fill="none" viewBox="0 0 43 33" id="badge_2"><g clip-path="url(#badge_2_a)"><path fill-rule="evenodd" clip-rule="evenodd" d="M41.87 15.905a21.804 21.804 0 00-1.064-2.313 20.772 20.772 0 00.937-11.238l-.01-.052A20.512 20.512 0 0041.14 0l-7.815 5.457A21.815 21.815 0 0021.45 1.963 21.815 21.815 0 009.575 5.457L1.76 0c-.24.75-.439 1.518-.593 2.302l-.01.052a20.774 20.774 0 00.937 11.238A21.754 21.754 0 000 19.36a23.624 23.624 0 004.345 6.334c.524.548 1.074 1.07 1.648 1.565l2.193-1.53-.172 3.09A23.574 23.574 0 0021.45 33a23.575 23.575 0 0013.438-4.18l-.172-3.09 2.19 1.53a23.82 23.82 0 004.188-4.713A23.645 23.645 0 0042.9 19.36a21.761 21.761 0 00-1.03-3.455z" fill="#FA6511"/><g filter="url(#badge_2_b)"><path d="M26.111 12.74a.313.313 0 00-.46.383 3.101 3.101 0 01-.165 2.87c-1.02-4.9-3.266-7.752-3.365-7.876a.32.32 0 00-.296-.113.314.314 0 00-.243.204c-.012.034-1.225 3.407-3.956 5.48-2.754 2.091-2.63 4.84-2.624 4.937a6.875 6.875 0 1013.749 0v-.007c-.089-4.145-2.536-5.81-2.64-5.879zm-4.235 12.135a2.816 2.816 0 01-2.813-2.812c0-2.307 2.475-5.092 2.58-5.21a.324.324 0 01.465 0c.106.118 2.58 2.902 2.58 5.21a2.816 2.816 0 01-2.812 2.812z" fill="url(#badge_2_c)"/></g></g><defs><filter id="badge_2_b" x="12" y="7" width="19.751" height="23.514" filterUnits="userSpaceOnUse" color-interpolation-filters="sRGB"><feFlood flood-opacity="0" result="BackgroundImageFix"/><feColorMatrix in="SourceAlpha" values="0 0 0 0 0 0 0 0 0 0 0 0 0 0 0 0 0 0 127 0"/><feOffset dy="2"/><feGaussianBlur stdDeviation="1.5"/><feColorMatrix values="0 0 0 0 0.829167 0 0 0 0 0.197411 0 0 0 0 0.0587326 0 0 0 0.7 0"/><feBlend in2="BackgroundImageFix" result="effect1_dropShadow"/><feBlend in="SourceGraphic" in2="effect1_dropShadow" result="shape"/></filter></defs></symbol><symbol fill="none" viewBox="0 0 43 33" id="badge_3"><g clip-path="url(#badge_3_a)"><path fill-rule="evenodd" clip-rule="evenodd" d="M41.87 15.905a21.804 21.804 0 00-1.064-2.313 20.772 20.772 0 00.937-11.238l-.01-.052A20.512 20.512 0 0041.14 0l-7.815 5.457A21.815 21.815 0 0021.45 1.963 21.815 21.815 0 009.575 5.457L1.76 0c-.24.75-.439 1.518-.593 2.302l-.01.052a20.774 20.774 0 00.937 11.238A21.754 21.754 0 000 19.36a23.624 23.624 0 004.345 6.334c.524.548 1.074 1.07 1.648 1.565l2.193-1.53-.172 3.09A23.574 23.574 0 0021.45 33a23.575 23.575 0 0013.438-4.18l-.172-3.09 2.19 1.53a23.82 23.82 0 004.188-4.713A23.645 23.645 0 0042.9 19.36a21.761 21.761 0 00-1.03-3.455z" fill="#10C5BA"/><g filter="url(#badge_3_b)"><path d="M13.496 10.45a1.82 1.82 0 011.32-.57h1.583a39.06 39.06 0 01-.01-.88H26.6c0 .302-.005.595-.011.88h1.594a1.82 1.82 0 011.813 1.934c-.285 4.748-2.736 7.727-6.62 8.17l.752 2.618c.895 0 1.62.724 1.62 1.62v1.78h-8.51v-1.78c0-.896.724-1.62 1.62-1.62l.751-2.619c-3.876-.446-6.324-3.423-6.607-8.17-.03-.5.149-.998.493-1.364zM28.3 11.711a.125.125 0 00-.034-.096c-.032-.034-.07-.034-.081-.034H26.51c-.253 3.343-.99 5.239-1.707 6.31 2.727-1.143 3.378-4.197 3.497-6.18zm-10.112 6.174c-.717-1.073-1.452-2.967-1.705-6.306h-1.668c-.013 0-.05 0-.081.034a.125.125 0 00-.034.096c.121 1.983.77 5.028 3.488 6.176z" fill="url(#badge_3_c)"/></g></g><defs><filter id="badge_3_b" x="10" y="8" width="23" height="23.002" filterUnits="userSpaceOnUse" color-interpolation-filters="sRGB"><feFlood flood-opacity="0" result="BackgroundImageFix"/><feColorMatrix in="SourceAlpha" values="0 0 0 0 0 0 0 0 0 0 0 0 0 0 0 0 0 0 127 0"/><feOffset dy="2"/><feGaussianBlur stdDeviation="1.5"/><feColorMatrix values="0 0 0 0 0.0481597 0 0 0 0 0.608333 0 0 0 0 0.573802 0 0 0 0.5 0"/><feBlend in2="BackgroundImageFix" result="effect1_dropShadow"/><feBlend in="SourceGraphic" in2="effect1_dropShadow" result="shape"/></filter></defs></symbol><symbol fill="none" viewBox="0 0 43 33" id="badge_4"><g clip-path="url(#badge_4_a)"><path fill-rule="evenodd" clip-rule="evenodd" d="M41.87 15.905a21.804 21.804 0 00-1.064-2.313 20.772 20.772 0 00.937-11.238l-.01-.052A20.512 20.512 0 0041.14 0l-7.815 5.457A21.815 21.815 0 0021.45 1.963 21.815 21.815 0 009.575 5.457L1.76 0c-.24.75-.439 1.518-.593 2.302l-.01.052a20.774 20.774 0 00.937 11.238A21.754 21.754 0 000 19.36a23.624 23.624 0 004.345 6.334c.524.548 1.074 1.07 1.648 1.565l2.193-1.53-.172 3.09A23.574 23.574 0 0021.45 33a23.575 23.575 0 0013.438-4.18l-.172-3.09 2.19 1.53a23.82 23.82 0 004.188-4.713A23.645 23.645 0 0042.9 19.36a21.761 21.761 0 00-1.03-3.455z" fill="#705BF1"/><g filter="url(#badge_4_b)"><path d="M30.983 14.396L29.609 22H13.39l-1.374-7.604c-.06-.336.04-.686.257-.891a.56.56 0 01.742-.057l4.199 3.066 3.72-7.127c.121-.232.322-.376.54-.386.22-.012.427.114.56.334l4.363 7.164 3.547-3.02a.561.561 0 01.762.008c.23.202.338.563.276.909z" fill="url(#badge_4_c)"/></g></g><defs><filter id="badge_4_b" x="9" y="8" width="25" height="19" filterUnits="userSpaceOnUse" color-interpolation-filters="sRGB"><feFlood flood-opacity="0" result="BackgroundImageFix"/><feColorMatrix in="SourceAlpha" values="0 0 0 0 0 0 0 0 0 0 0 0 0 0 0 0 0 0 127 0"/><feOffset dy="2"/><feGaussianBlur stdDeviation="1.5"/><feColorMatrix values="0 0 0 0 0.261467 0 0 0 0 0.18533 0 0 0 0 0.729167 0 0 0 0.5 0"/><feBlend in2="BackgroundImageFix" result="effect1_dropShadow"/><feBlend in="SourceGraphic" in2="effect1_dropShadow" result="shape"/></filter></defs></symbol><symbol fill="none" viewBox="0 0 43 33" id="badge_5"><g clip-path="url(#badge_5_a)"><path fill-rule="evenodd" clip-rule="evenodd" d="M41.87 15.905a21.804 21.804 0 00-1.064-2.313 20.772 20.772 0 00.937-11.238l-.01-.052A20.512 20.512 0 0041.14 0l-7.815 5.457A21.815 21.815 0 0021.45 1.963 21.815 21.815 0 009.575 5.457L1.76 0c-.24.75-.439 1.518-.593 2.302l-.01.052a20.774 20.774 0 00.937 11.238A21.754 21.754 0 000 19.36a23.624 23.624 0 004.345 6.334c.524.548 1.074 1.07 1.648 1.565l2.193-1.53-.172 3.09A23.574 23.574 0 0021.45 33a23.575 23.575 0 0013.438-4.18l-.172-3.09 2.19 1.53a23.82 23.82 0 004.188-4.713A23.645 23.645 0 0042.9 19.36a21.761 21.761 0 00-1.03-3.455z" fill="#153553"/><g filter="url(#badge_5_b)"><path d="M30.433 14.307a.459.459 0 00-.427-.317l-5.906-.12-1.94-5.562a.458.458 0 00-.866 0l-1.939 5.562-5.905.12a.459.459 0 00-.268.825l4.706 3.557-1.71 5.636a.46.46 0 00.7.51l4.85-3.364 4.848 3.364a.46.46 0 00.7-.51l-1.71-5.636 4.707-3.557a.459.459 0 00.16-.508z" fill="url(#badge_5_c)"/></g></g><defs><filter id="badge_5_b" x="10" y="7" width="23.455" height="22.6" filterUnits="userSpaceOnUse" color-interpolation-filters="sRGB"><feFlood flood-opacity="0" result="BackgroundImageFix"/><feColorMatrix in="SourceAlpha" values="0 0 0 0 0 0 0 0 0 0 0 0 0 0 0 0 0 0 127 0"/><feOffset dy="2"/><feGaussianBlur stdDeviation="1.5"/><feColorMatrix values="0 0 0 0 0.103524 0 0 0 0 0.214456 0 0 0 0 0.279167 0 0 0 0.6 0"/><feBlend in2="BackgroundImageFix" result="effect1_dropShadow"/><feBlend in="SourceGraphic" in2="effect1_dropShadow" result="shape"/></filter></defs></symbol><symbol viewBox="0 0 20 13" id="behance"><path d="M5.8 0c.588 0 1.12.05 1.605.156.483.103.894.273 1.243.508.342.234.612.545.802.937.188.388.283.872.283 1.444 0 .619-.142 1.138-.423 1.55-.282.413-.7.753-1.255 1.015.758.218 1.318.6 1.69 1.145.375.55.556 1.206.556 1.975 0 .625-.118 1.163-.356 1.613-.241.458-.57.83-.975 1.116a4.28 4.28 0 01-1.4.637 6.233 6.233 0 01-1.606.207H0V.003h5.8V0zm8.363 10.166c.366.358.896.538 1.582.538.493 0 .92-.125 1.278-.375.355-.246.57-.513.653-.788h2.157c-.347 1.072-.873 1.838-1.588 2.298-.71.462-1.575.694-2.581.694-.7 0-1.333-.113-1.9-.338a4.014 4.014 0 01-1.438-.957 4.39 4.39 0 01-.905-1.485 5.45 5.45 0 01-.32-1.9c0-.665.113-1.288.329-1.863a4.39 4.39 0 01.933-1.494c.403-.418.883-.75 1.442-.992a4.65 4.65 0 011.858-.363c.753 0 1.412.147 1.98.442a3.952 3.952 0 011.387 1.18 4.81 4.81 0 01.785 1.692 6.39 6.39 0 01.17 1.984h-6.429c0 .704.238 1.371.607 1.729v-.002zm-8.563.042c.266 0 .52-.025.759-.078.242-.052.457-.137.637-.26.183-.12.333-.282.442-.491.108-.208.162-.475.162-.8 0-.633-.179-1.083-.534-1.356-.356-.27-.83-.404-1.412-.404H2.709v3.387H5.6v.002zm11.375-4.722c-.292-.322-.785-.496-1.385-.496-.391 0-.715.065-.975.2-.252.131-.46.295-.619.488-.157.2-.265.407-.327.63-.063.216-.1.412-.113.587h3.982c-.06-.625-.272-1.087-.563-1.41v.001zM5.45 4.97c.48 0 .878-.112 1.191-.345.313-.227.463-.602.463-1.119 0-.287-.05-.522-.15-.706a1.125 1.125 0 00-.418-.427 1.697 1.697 0 00-.6-.217 3.594 3.594 0 00-.695-.062H2.71v2.875h2.74v.001zM13.056.825h4.988V2.04h-4.988V.824v.001z" fill-rule="evenodd"/></symbol><symbol viewBox="0 0 14 14" id="cardsV2"><path d="M4.9 0H1.4C.628 0 0 .629 0 1.4v3.5c0 .771.628 1.4 1.4 1.4h3.5c.773 0 1.4-.629 1.4-1.4V1.4C6.3.629 5.673 0 4.9 0zm7.7 0H9.1c-.773 0-1.4.629-1.4 1.4v3.5c0 .771.627 1.4 1.4 1.4h3.5c.773 0 1.4-.629 1.4-1.4V1.4c0-.771-.627-1.4-1.4-1.4zM4.9 7.7H1.4C.628 7.7 0 8.329 0 9.1v3.5c0 .772.628 1.4 1.4 1.4h3.5a1.4 1.4 0 001.4-1.4V9.1c0-.771-.627-1.4-1.4-1.4zm7.7 0H9.1c-.773 0-1.4.629-1.4 1.4v3.5A1.4 1.4 0 009.1 14h3.5a1.4 1.4 0 001.4-1.4V9.1c0-.771-.627-1.4-1.4-1.4z"/></symbol><symbol viewBox="0 0 20 20" id="cart"><use xlink:href="#cart_a" opacity=".01"/><use xlink:href="#cart_b" transform="translate(14.043 15.043)"/><use xlink:href="#cart_b" transform="translate(4.956 15.043)"/><use xlink:href="#cart_c" transform="translate(0 1)"/><use xlink:href="#cart_d" transform="translate(4.058 5.956)"/><defs><path id="cart_a" fill-rule="evenodd" d="M0 0h20v20H0V0z"/><path id="cart_b" fill-rule="evenodd" d="M0 1.74a1.74 1.74 0 113.48 0 1.74 1.74 0 01-3.48 0zM1.74 1a.74.74 0 100 1.48.74.74 0 000-1.48z"/><path id="cart_c" fill-rule="evenodd" d="M0 .5A.5.5 0 01.5 0h2.891a.5.5 0 01.487.385l3.214 13.658h8.69a.5.5 0 110 1H6.696a.5.5 0 01-.487-.385L2.995 1H.5A.5.5 0 010 .5z"/><path id="cart_d" fill-rule="evenodd" d="M0 .5A.5.5 0 01.5 0h14.942a.5.5 0 01.474.658l-2.478 7.435a.5.5 0 01-.474.342H2.249a.5.5 0 010-1h10.355L14.748 1H.5A.5.5 0 010 .5z"/></defs></symbol><symbol viewBox="0 0 22 22" id="cartBold"><path d="M19.45 15.24a.86.86 0 00.848-.719l1.69-10.14a.86.86 0 00-.848-1H4.91L4.229.65A.86.86 0 003.395 0H.858a.86.86 0 100 1.719h1.865l.673 2.696L5.07 14.45v2.6a2.553 2.553 0 00-1.69 2.4A2.552 2.552 0 005.93 22c1.744 0 2.981-1.726 2.41-3.38h7.01c-.572 1.655.667 3.38 2.41 3.38a2.552 2.552 0 002.55-2.55 2.552 2.552 0 00-2.55-2.55H6.79v-1.66h12.66zm.676-10.141l-1.404 8.422H6.658L5.254 5.099h14.872zM6.76 19.45a.832.832 0 01-1.661 0 .832.832 0 011.661 0zm11 .831a.832.832 0 010-1.661.832.832 0 010 1.661z"/></symbol><symbol viewBox="0 0 20 20" id="cartEmpty"><g fill-rule="evenodd"><path d="M.946 8.44a.5.5 0 01.384-.18h17.348a.5.5 0 01.492.59l-1.652 9.087a.5.5 0 01-.492.41H2.982a.5.5 0 01-.492-.41L.838 8.85a.5.5 0 01.108-.41zm.983.82l1.47 8.088h13.21l1.47-8.087H1.929z"/><path d="M0 7.109a.5.5 0 01.5-.5h19a.5.5 0 01.5.5V8.76a.5.5 0 01-.5.5H.5a.5.5 0 01-.5-.5V7.109zm1 .5v.652h18v-.652H1zM8.29.146a.5.5 0 010 .708L3.334 5.81a.5.5 0 11-.708-.707L7.583.146a.5.5 0 01.707 0zm3.416 0a.5.5 0 01.708 0l4.956 4.957a.5.5 0 11-.707.707L11.706.854a.5.5 0 010-.708zm-.466 9.767a.5.5 0 01.5.5v4.957a.5.5 0 01-1 0v-4.957a.5.5 0 01.5-.5zm3.3 0a.5.5 0 01.5.5v4.957a.5.5 0 01-1 0v-4.957a.5.5 0 01.5-.5zm-5.78 0a.5.5 0 01.5.5v4.957a.5.5 0 01-1 0v-4.957a.5.5 0 01.5-.5zm-3.3 0a.5.5 0 01.5.5v4.957a.5.5 0 01-1 0v-4.957a.5.5 0 01.5-.5z"/></g></symbol><symbol viewBox="0 0 20 14" id="check"><use xlink:href="#check_a"/><defs><path id="check_a" fill-rule="evenodd" d="M19.854.146a.5.5 0 010 .708L7.368 13.339a.5.5 0 01-.707 0L.146 6.825a.5.5 0 11.708-.707l6.16 6.16L19.146.147a.5.5 0 01.708 0z"/></defs></symbol><symbol viewBox="0 0 32 32" id="checkV3"><path d="M16 0C7.163 0 0 7.163 0 16s7.163 16 16 16 16-7.163 16-16S24.837 0 16 0zm0 30.545C7.967 30.545 1.455 24.033 1.455 16 1.455 7.967 7.967 1.455 16 1.455c8.033 0 14.545 6.512 14.545 14.545 0 8.033-6.512 14.545-14.545 14.545z"/><path d="M22.696 12.766a1.035 1.035 0 00-1.463-1.463l-7.184 7.183-3.283-3.282a1.035 1.035 0 00-1.463 1.463l4.031 4.031a1.035 1.035 0 001.603-.173l7.759-7.759z"/></symbol><symbol viewBox="0 0 20 20" id="close"><path fill-rule="evenodd" clip-rule="evenodd" d="M.854.146a.5.5 0 10-.708.708L9.293 10 .146 19.146a.5.5 0 10.708.707L10 10.707l9.146 9.146a.5.5 0 00.708-.707L10.707 10 19.854.854a.5.5 0 00-.708-.708L10 9.293.854.146z"/></symbol><symbol viewBox="0 0 20 20" id="cloudDownload"><path d="M13.086 16.528a.502.502 0 00-.707-.013l-1.882 1.81V9a.5.5 0 10-1 0v9.325l-1.883-1.81a.5.5 0 00-.693.72l2.73 2.625c.02.02.045.029.068.045.028.019.053.043.085.056l.004.001a.5.5 0 00.377 0l.005-.001c.032-.013.057-.037.085-.056.023-.016.048-.025.069-.045l2.728-2.625a.5.5 0 00.014-.707z"/><path d="M15.368 12.511h-1.095a.5.5 0 110-1h1.095A3.636 3.636 0 0019 7.88a3.636 3.636 0 00-3.632-3.631l-.427-.01-.135-.268A5.365 5.365 0 009.991 1a5.382 5.382 0 00-5.347 4.743l-.052.441-.928.001A2.667 2.667 0 001 8.848a2.666 2.666 0 002.664 2.663h2.139a.5.5 0 110 1h-2.14A3.667 3.667 0 010 8.848a3.667 3.667 0 013.664-3.663h.055A6.383 6.383 0 019.99 0a6.356 6.356 0 015.565 3.251A4.636 4.636 0 0120 7.879a4.638 4.638 0 01-4.632 4.632z"/></symbol><symbol viewBox="0 0 32 32" id="copy"><path d="M16 0C7.163 0 0 7.163 0 16s7.163 16 16 16 16-7.163 16-16S24.837 0 16 0zm0 30.545C7.967 30.545 1.455 24.033 1.455 16 1.455 7.967 7.967 1.455 16 1.455c8.033 0 14.545 6.512 14.545 14.545 0 8.033-6.512 14.545-14.545 14.545z"/><path d="M8.92 23.04c.533.64 1.387.96 2.24.96.853 0 1.653-.32 2.293-.96l2.08-2.08c1.067-1.067 1.28-2.72.48-4l.907-.907c.533.32 1.12.48 1.707.48.853 0 1.653-.32 2.293-.96l2.08-2.08c.64-.586.96-1.44.96-2.293 0-.853-.32-1.707-.96-2.293C22.413 8.32 21.56 8 20.707 8c-.854 0-1.707.32-2.24.907l-2.08 2.08c-1.067 1.066-1.28 2.72-.48 4l-.907.906c-1.28-.746-2.933-.586-4 .48l-2.08 2.08c-1.227 1.227-1.227 3.254 0 4.587zm4.853-3.68l1.174-1.173c.16.586.053 1.226-.427 1.706l-2.08 2.08c-.64.64-1.76.64-2.4 0-.32-.32-.48-.746-.48-1.226s.16-.907.48-1.227l2.08-2.08c.427-.48 1.067-.64 1.707-.427L12.6 18.187c-.32.32-.32.8 0 1.12.32.266.853.266 1.173.053zm4.427-6.72l-1.173 1.173c-.16-.586-.054-1.226.426-1.706l2.08-2.08c.64-.64 1.76-.64 2.4 0 .32.32.48.746.48 1.226s-.16.907-.48 1.227L19.8 14.507c-.427.48-1.12.64-1.707.426l1.227-1.173c.32-.32.32-.8 0-1.12a.884.884 0 00-1.12 0z"/></symbol><symbol viewBox="0 0 32 32" id="device-desktop"><path fill-rule="evenodd" clip-rule="evenodd" d="M4.389 20.176H28V4.78a.701.701 0 00-.694-.704H5.083a.701.701 0 00-.694.704v15.395zm0 1.407v.704a.7.7 0 00.694.703h22.223a.701.701 0 00.694-.703v-.704H4.389zm8.53 5.01h6.552l-1.042-2.195h-4.47l-1.04 2.195zM20.36 28h-8.333a.695.695 0 01-.549-.27.715.715 0 01-.125-.604l1.172-2.728H5.083C3.935 24.398 3 23.45 3 22.287V4.78c0-1.164.935-2.111 2.083-2.111h22.223c1.148 0 2.083.947 2.083 2.11v17.507c0 1.164-.935 2.11-2.083 2.11h-7.444l1.173 2.73a.715.715 0 01-.125.603.695.695 0 01-.549.27z"/></symbol><symbol viewBox="0 0 32 32" id="device-smartphone"><path fill-rule="evenodd" clip-rule="evenodd" d="M16.667 6.667H14a.667.667 0 010-1.334h2.667a.667.667 0 010 1.334zm0 18.666H14A.667.667 0 0114 24h2.667a.667.667 0 010 1.333zM10 4c-.367 0-.667.3-.667.667V26c0 .367.3.667.667.667h10.667c.366 0 .666-.3.666-.667V4.667c0-.367-.3-.667-.666-.667H10zm10.667 24H10c-1.103 0-2-.897-2-2V4.667c0-1.103.897-2 2-2h10.667c1.102 0 2 .897 2 2V26c0 1.103-.898 2-2 2z"/></symbol><symbol viewBox="0 0 32 32" id="device-tablet"><path fill-rule="evenodd" clip-rule="evenodd" d="M16.667 6.667H14a.667.667 0 010-1.334h2.667a.667.667 0 010 1.334zm0 18.666H14A.667.667 0 0114 24h2.667a.667.667 0 010 1.333zM7.333 4c-.366 0-.666.3-.666.667V26c0 .367.3.667.667.667h16c.366 0 .666-.3.666-.667V4.667C24 4.3 23.7 4 23.334 4h-16zm16 24h-16c-1.102 0-2-.897-2-2V4.667c0-1.103.898-2 2-2h16c1.103 0 2 .897 2 2V26c0 1.103-.897 2-2 2z"/></symbol><symbol viewBox="0 0 20 20" id="dribble"><path d="M10 20C4.487 20 0 15.512 0 10 0 4.487 4.487 0 10 0c5.512 0 10 4.487 10 10 0 5.512-4.488 10-10 10zm8.434-8.631c-.293-.093-2.644-.794-5.322-.365 1.118 3.07 1.573 5.57 1.66 6.09a8.57 8.57 0 003.663-5.725h-.001zm-5.097 6.506c-.127-.75-.624-3.36-1.825-6.475l-.055.018c-4.817 1.678-6.545 5.02-6.7 5.332A8.485 8.485 0 0010 18.555a8.506 8.506 0 003.338-.679v-.001zm-9.683-2.15c.194-.332 2.537-4.213 6.944-5.637a5.18 5.18 0 01.337-.1c-.216-.488-.45-.973-.694-1.45-4.266 1.274-8.403 1.22-8.778 1.212l-.004.26c0 2.194.831 4.197 2.195 5.713v.002zM1.638 8.262c.383.007 3.902.022 7.897-1.04a54.666 54.666 0 00-3.166-4.94 8.576 8.576 0 00-4.73 5.982l-.002-.002zM8 1.71a45.577 45.577 0 013.185 5c3.037-1.138 4.325-2.866 4.477-3.085A8.496 8.496 0 0010 1.47c-.688 0-1.359.083-2 .238v.002zm8.613 2.902C16.43 4.856 15 6.69 11.843 7.98a25.723 25.723 0 01.75 1.678c2.842-.358 5.666.215 5.947.274a8.493 8.493 0 00-1.929-5.32h.002z" fill-rule="evenodd"/></symbol><symbol viewBox="0 0 20 14" id="email"><path fill-rule="evenodd" clip-rule="evenodd" d="M1.814 1.001A.86.86 0 011.857 1h16.286l.043.001L10 7.551 1.814 1zm-.789.65A.858.858 0 001 1.857v9.953c0 .473.384.857.857.857h16.286A.858.858 0 0019 11.81V1.857a.86.86 0 00-.025-.206l-8.663 6.93a.5.5 0 01-.624 0L1.025 1.65zM1.857 0C.832 0 0 .83 0 1.857v9.953c0 1.025.832 1.857 1.857 1.857h16.286A1.858 1.858 0 0020 11.81V1.857A1.857 1.857 0 0018.143 0H1.857z"/></symbol><symbol fill="none" viewBox="0 0 16 16" id="exclamationMark"><path d="M8 0a8 8 0 000 16A8 8 0 008 0zm0 14.55a6.55 6.55 0 11.01-13.11A6.55 6.55 0 018 14.54z" fill="#90A4AE"/><path d="M8 3.4a.97.97 0 100 1.94.97.97 0 000-1.95zm0 3.39c-.4 0-.73.32-.73.73v4.36a.73.73 0 001.46 0V7.52c0-.4-.33-.73-.73-.73z" fill="#90A4AE"/></symbol><symbol viewBox="0 0 20 15" id="eyeFill"><path d="M0 7.1c1.6 4.2 5.5 7.2 10 7.2s8.4-3 10-7.2C18.4 3 14.5 0 10 0S1.6 3 0 7.1zm5.7 0c0-2.3 1.9-4.2 4.3-4.2s4.3 1.9 4.3 4.2c0 2.4-1.9 4.3-4.3 4.3S5.7 9.5 5.7 7.1zm1.9 0c0 1.4 1.1 2.4 2.4 2.4 1.3 0 2.4-1 2.4-2.4 0-1.3-1.1-2.3-2.4-2.3-1.3 0-2.4 1-2.4 2.3z"/></symbol><symbol viewBox="0 0 20 20" id="facebook"><path d="M0 3a3 3 0 013-3h14a3 3 0 013 3v14a3 3 0 01-3 3H3a3 3 0 01-3-3V3zm10.607 16.979h3.118v-7.746h2.6l.387-3.02h-2.987V7.288c0-.876.244-1.47 1.494-1.47h1.6v-2.7A21.303 21.303 0 0014.49 3c-2.305 0-3.883 1.405-3.883 3.987v2.23H8v3.017h2.607v7.745z"/></symbol><symbol viewBox="0 0 20 20" id="facebookV2"><path d="M8.434 11.3H5.959c-.4 0-.525-.15-.525-.525V7.75c0-.4.15-.525.525-.525h2.475v-2.2c0-1 .175-1.95.675-2.825.525-.9 1.275-1.5 2.225-1.85a5.562 5.562 0 011.925-.325h2.45c.35 0 .5.15.5.5v2.85c0 .35-.15.5-.5.5-.675 0-1.35 0-2.025.025-.675 0-1.025.325-1.025 1.025-.025.75 0 1.475 0 2.25h2.9c.4 0 .55.15.55.55v3.025c0 .4-.125.525-.55.525h-2.9v8.15c0 .425-.125.575-.575.575H8.959c-.375 0-.525-.15-.525-.525V11.3z"/></symbol><symbol viewBox="0 0 32 32" id="facebookV3"><path d="M14.545 12.364v1.454h-1.454V16h1.454v6.546h2.91V16h1.934l.247-2.182h-2.181v-1.272c0-.59.058-.902.967-.902h1.214v-2.19h-1.949c-2.327 0-3.142 1.091-3.142 2.91z"/><path d="M16 0C7.163 0 0 7.163 0 16s7.163 16 16 16 16-7.163 16-16S24.837 0 16 0zm0 30.545C7.967 30.545 1.455 24.033 1.455 16 1.455 7.967 7.967 1.455 16 1.455c8.033 0 14.545 6.512 14.545 14.545 0 8.033-6.512 14.545-14.545 14.545z"/></symbol><symbol viewBox="0 0 59 80" id="fast"><path fill-rule="evenodd" clip-rule="evenodd" d="M37.171 1.794A1.472 1.472 0 0035.491.02C28.357 1.212 22.924 3.453 19.75 7.372c-2.904 3.586-3.694 8.287-2.614 14.107-2.306-.46-4.6-1.652-6.515-2.934a30.76 30.76 0 01-3.696-2.916 16.38 16.38 0 01-.254-.241l-.01-.01v-.001H6.66v-.001a1.473 1.473 0 00-2.219.159l1.178.883a129.235 129.235 0 00-1.179-.882l-.001.001-.003.004-.009.012-.028.038-.095.134c-.08.114-.192.277-.328.487a24.424 24.424 0 00-1.049 1.777c-.808 1.509-1.77 3.655-2.366 6.188-1.155 4.919-.913 11.326 4.472 17.202a26.665 26.665 0 00-2.758 11.849C2.275 68.017 14.26 80 29.047 80 43.83 80 55.82 68.017 55.82 53.228c0-4.074-.91-7.935-2.538-11.392 5.273-4.638 5.372-11.178 4.264-16.317-.591-2.741-1.542-5.193-2.338-6.95a35.698 35.698 0 00-1.029-2.094 25.255 25.255 0 00-.409-.736l-.025-.043-.008-.013-.002-.004-.001-.002-1.263.758 1.262-.759a1.472 1.472 0 00-2.302-.284l-.003.003-.012.012-.052.052-.208.202a48.858 48.858 0 01-3.37 2.96c-1.019.81-2.106 1.593-3.116 2.166-.316.18-.606.327-.87.447-.188-2.527-.78-4.36-1.635-5.8-.886-1.495-2.027-2.49-2.939-3.286-.146-.128-.286-.25-.418-.368-.974-.873-1.661-1.624-2.018-2.9-.376-1.344-.43-3.45.382-7.086zm3.94 27.529a25.154 25.154 0 016.416 4.423 25.711 25.711 0 014.335 5.384c3.593-3.586 3.774-8.492 2.804-12.99-.533-2.475-1.4-4.72-2.141-6.357a34.76 34.76 0 00-.45-.954 50.836 50.836 0 01-2.456 2.096c-1.078.858-2.3 1.744-3.497 2.424-1.146.649-2.482 1.234-3.732 1.234a1.473 1.473 0 01-1.472-1.476c.01-3.16-.574-4.97-1.287-6.171-.629-1.06-1.391-1.731-2.301-2.532-.159-.139-.32-.281-.487-.43-1.113-.996-2.306-2.21-2.89-4.301-.452-1.618-.51-3.645-.076-6.354-5.74 1.207-9.613 3.157-11.839 5.906-2.427 2.998-3.157 7.288-1.604 13.573a1.473 1.473 0 01-1.438 1.825c-3.785-.022-7.43-1.903-10.012-3.63a33.684 33.684 0 01-3.066-2.32c-.125.214-.257.45-.395.707-.725 1.352-1.574 3.254-2.095 5.47-.932 3.972-.816 8.926 3.018 13.66a24.976 24.976 0 014.175-4.988 25.091 25.091 0 018.108-5.006 26.693 26.693 0 0110.319-2.06c4.339 0 8.438 1.033 12.064 2.867zm-12.063.48c-12.94 0-23.426 10.488-23.426 23.425 0 12.94 10.485 23.425 23.425 23.425 12.934 0 23.426-10.485 23.426-23.425 0-12.937-10.492-23.426-23.425-23.426zm-1.667 8.42c.924 0 1.673.75 1.673 1.674v12.627l12.814 11.213a1.673 1.673 0 11-2.203 2.518L26.279 54.542a1.674 1.674 0 01-.572-1.259V39.897c0-.924.75-1.673 1.674-1.673z"/></symbol><symbol viewBox="0 0 9 14" id="feature"><path d="M2.71 13.967a.41.41 0 00.508-.158l4.922-7.82a.41.41 0 00-.347-.63H4.508L5.73.511a.41.41 0 00-.745-.32L.063 8.011a.41.41 0 00.347.63h3.285l-1.222 4.848a.41.41 0 00.236.478z"/></symbol><symbol viewBox="0 0 20 10" id="flickr"><g fill="none" fill-rule="evenodd"><path d="M10.721 4.637a4.638 4.638 0 004.64 4.638 4.639 4.639 0 10-4.64-4.638z" fill="#FF0084"/><path d="M0 4.637a4.638 4.638 0 004.64 4.638A4.639 4.639 0 100 4.637z" fill="#0063DB"/></g></symbol><symbol viewBox="0 0 20 20" id="gearWithCheck"><path fill-rule="evenodd" clip-rule="evenodd" d="M19.848.095a.417.417 0 01.057.586l-9.583 11.667a.416.416 0 01-.633.012L6.355 8.61a.417.417 0 01.623-.553l3.01 3.385L19.26.152a.417.417 0 01.587-.057zM8.333.417c0-.23.187-.417.417-.417h2.5c.23 0 .417.187.417.417v2.38c.298.075.635.165.965.27.45.143.916.32 1.268.536a.417.417 0 11-.434.71c-.264-.16-.653-.314-1.086-.451a18.03 18.03 0 00-1.227-.333.417.417 0 01-.32-.406V.833H9.167v2.29c0 .193-.132.36-.32.406-.358.086-.801.197-1.228.333-.433.137-.822.29-1.086.452a.417.417 0 01-.512-.06l-1.62-1.62-1.767 1.768 1.619 1.62a.417.417 0 01.06.511c-.16.264-.314.654-.452 1.086-.135.427-.247.87-.334 1.23a.417.417 0 01-.405.318H.833v1.666h2.289c.192 0 .36.132.405.319.087.359.199.802.334 1.229.138.432.291.822.453 1.086.1.164.075.376-.061.512l-1.62 1.62 1.769 1.767 1.618-1.62a.417.417 0 01.513-.06c.264.162.653.315 1.086.453.427.135.87.247 1.23.334a.417.417 0 01.318.405v2.289h1.666v-2.289c0-.192.132-.36.319-.405.359-.087.802-.199 1.229-.334.432-.138.82-.29 1.085-.453a.417.417 0 01.512.06l1.62 1.62 1.768-1.768-1.619-1.62a.417.417 0 01-.06-.511c.16-.264.314-.654.452-1.086.135-.427.247-.87.334-1.23a.417.417 0 01.405-.318h2.289V9.167h-2.29a.417.417 0 01-.404-.32c-.1-.415-.235-.941-.4-1.426a.417.417 0 11.79-.267c.135.398.25.817.34 1.18h2.38c.23 0 .417.186.417.416v2.5c0 .23-.187.417-.417.417h-2.378a17.02 17.02 0 01-.272.966 7.4 7.4 0 01-.377.976l1.694 1.695a.417.417 0 010 .589l-2.357 2.357a.417.417 0 01-.59 0l-1.694-1.694a7.334 7.334 0 01-.976.377c-.331.105-.668.196-.966.272v2.378c0 .23-.187.417-.417.417h-2.5a.417.417 0 01-.417-.417v-2.378a16.94 16.94 0 01-.966-.272 7.353 7.353 0 01-.977-.378L4.696 18.25a.417.417 0 01-.589 0L1.75 15.893a.417.417 0 010-.59l1.694-1.694a7.394 7.394 0 01-.377-.976 17.062 17.062 0 01-.272-.966H.417A.417.417 0 010 11.25v-2.5c0-.23.187-.417.417-.417h2.378c.076-.298.167-.635.272-.966.106-.334.232-.677.377-.976L1.75 4.697a.417.417 0 010-.59l2.357-2.356a.417.417 0 01.59 0L6.39 3.444a7.6 7.6 0 01.976-.377c.331-.105.667-.195.966-.27V.417z"/></symbol><symbol viewBox="0 0 20 20" id="github"><path d="M10 0C4.475 0 0 4.477 0 10a10 10 0 006.837 9.487c.5.094.684-.214.684-.48 0-.238-.008-.867-.012-1.7-2.783.603-3.369-1.342-3.369-1.342-.455-1.155-1.112-1.463-1.112-1.463-.907-.62.07-.607.07-.607 1.003.07 1.53 1.03 1.53 1.03.893 1.529 2.342 1.088 2.913.831.09-.646.348-1.087.634-1.337-2.221-.25-4.555-1.11-4.555-4.942 0-1.09.388-1.983 1.029-2.683-.104-.253-.448-1.269.096-2.646 0 0 .84-.27 2.75 1.024a9.6 9.6 0 012.504-.337c.85.005 1.705.115 2.503.337 1.91-1.293 2.748-1.024 2.748-1.024.546 1.377.204 2.393.1 2.646.641.7 1.029 1.592 1.029 2.683 0 3.842-2.338 4.688-4.567 4.934.36.308.68.919.68 1.85 0 1.338-.013 2.417-.013 2.744 0 .269.18.579.687.481A9.998 9.998 0 0020 10c0-5.523-4.477-10-10-10" fill-rule="evenodd"/></symbol><symbol viewBox="0 0 20 20" id="google"><path fill-rule="evenodd" clip-rule="evenodd" d="M10.202 8.57V12h5.793c-.232 1.473-1.75 4.316-5.786 4.316-3.482 0-6.324-2.83-6.324-6.317a6.323 6.323 0 016.317-6.317c1.985 0 3.312.83 4.07 1.544l2.77-2.613C15.263.983 12.957 0 10.205 0 4.56-.002 0 4.466 0 9.999S4.562 20 10.202 20C16.095 20 20 15.943 20 10.227a8.93 8.93 0 00-.16-1.656h-9.638z"/></symbol><symbol viewBox="0 0 20 20" id="heart"><use xlink:href="#heart_a" transform="translate(0 1)"/><defs><path id="heart_a" d="M10.607 15.73a23.179 23.179 0 011.716-1.538c.347-.287 1.628-1.322 1.881-1.53C17.558 9.908 19 7.983 19 5.53c0-4.794-6.128-6.205-8.106-2.254L10 5.063l-.894-1.787C7.129-.674 1 .733 1 5.53c0 2.453 1.442 4.377 4.796 7.131.253.209 1.532 1.242 1.879 1.528a23.28 23.28 0 011.714 1.536c.224.225.427.446.611.665.183-.217.385-.437.607-.66zM9.387 1.872c.22.278.535.8.613.956a9.3 9.3 0 01.613-.957C13.459-1.653 20-.07 20 5.53c0 6.006-8.253 9.035-10 12.647C8.254 14.564 0 11.536 0 5.53 0-.076 6.543-1.65 9.387 1.873z"/></defs></symbol><symbol viewBox="0 0 22 20" id="heartBold"><path fill-rule="evenodd" clip-rule="evenodd" d="M1.795 10.556a6.195 6.195 0 018.781-8.742l.424.424.424-.424a6.193 6.193 0 018.76 0 6.197 6.197 0 01.02 8.742l-8.405 8.9a1.1 1.1 0 01-1.598 0l-8.406-8.9zM11 17.098l7.607-8.055.023-.022a3.999 3.999 0 000-5.651 3.997 3.997 0 00-5.652 0l-1.2 1.201a1.1 1.1 0 01-1.556 0L9.021 3.37A3.993 3.993 0 002.2 6.195a3.994 3.994 0 001.19 2.848L11 17.098z"/></symbol><symbol viewBox="0 0 20 18" id="heartFilled"><use xlink:href="#heartFilled_a"/><defs><path id="heartFilled_a" fill-rule="evenodd" d="M0 5.476C0 11.423 8.254 14.422 10 18c1.747-3.577 10-6.577 10-12.524C20-.52 12.358-1.864 10 2.8 7.645-1.859 0-.525 0 5.476z"/></defs></symbol><symbol viewBox="0 0 20 20" id="instagram"><path d="M10 .01C5.904.01 2.015-.354.53 3.455-.086 5.03.004 7.073.004 10c0 2.567-.083 4.98.524 6.542 1.482 3.812 5.404 3.447 9.469 3.447 3.922 0 7.966.408 9.47-3.447.615-1.59.525-3.603.525-6.542 0-3.903.215-6.422-1.679-8.313C16.396-.23 13.803.01 9.996.01H10zm-.895 1.8c8.543-.014 9.63-.963 9.03 12.222-.212 4.663-3.766 4.15-8.134 4.15-7.964 0-8.193-.227-8.193-8.188 0-8.053.632-8.18 7.297-8.186v.002zm6.231 1.658a1.199 1.199 0 100 2.397 1.199 1.199 0 000-2.397zM10 4.868a5.131 5.131 0 00-5.132 5.13A5.13 5.13 0 0010 15.129a5.13 5.13 0 100-10.26zm0 1.8c4.405 0 4.411 6.66 0 6.66-4.404 0-4.41-6.66 0-6.66z"/></symbol><symbol viewBox="0 0 8 11" id="linkArrowUp"><path d="M0 3.99h3V11h2V3.99h3L4 0 0 3.99z"/></symbol><symbol viewBox="0 0 20 20" id="linkedIn"><path d="M16.833 0H3.167C.866 0 0 .866 0 3.167v13.666C0 19.134.866 20 3.167 20h13.666C19.135 20 20 19.134 20 16.833V3.167C20 .866 19.135 0 16.833 0zM6.667 15.833h-2.5V6.667h2.5v9.166zM5.417 5.61a1.465 1.465 0 01-1.459-1.47c0-.812.654-1.47 1.459-1.47s1.458.658 1.458 1.47c0 .812-.652 1.47-1.458 1.47zm11.25 10.223h-2.5v-4.67c0-2.806-3.334-2.594-3.334 0v4.67h-2.5V6.667h2.5v1.47c1.164-2.155 5.834-2.314 5.834 2.064v5.632z"/></symbol><symbol viewBox="0 0 24 24" id="linkedInV2"><path d="M21.6 21.6v-7.032c0-3.456-.744-6.096-4.776-6.096-1.944 0-3.24 1.056-3.768 2.064h-.048V8.784H9.192V21.6h3.984v-6.36c0-1.68.312-3.288 2.376-3.288 2.04 0 2.064 1.896 2.064 3.384v6.24H21.6v.024zM2.712 8.784h3.984V21.6H2.712V8.784zM4.704 2.4A2.305 2.305 0 002.4 4.704c0 1.272 1.032 2.328 2.304 2.328 1.272 0 2.304-1.056 2.304-2.328A2.305 2.305 0 004.704 2.4z"/></symbol><symbol viewBox="0 0 32 32" id="linkedinV3"><path d="M16 0C7.163 0 0 7.163 0 16s7.163 16 16 16 16-7.163 16-16S24.837 0 16 0zm0 30.545C7.967 30.545 1.455 24.033 1.455 16 1.455 7.967 7.967 1.455 16 1.455c8.033 0 14.545 6.512 14.545 14.545 0 8.033-6.512 14.545-14.545 14.545z"/><path d="M24 22v-5.127c0-2.52-.543-4.445-3.483-4.445-1.417 0-2.362.77-2.747 1.505h-.035v-1.278h-2.783V22h2.905v-4.637c0-1.225.228-2.398 1.733-2.398 1.487 0 1.505 1.383 1.505 2.468v4.55H24V22zm-13.773-9.345h2.905V22h-2.905v-9.345zM11.68 8A1.68 1.68 0 0010 9.68c0 .928.752 1.697 1.68 1.697.928 0 1.68-.77 1.68-1.697A1.68 1.68 0 0011.68 8z"/></symbol><symbol viewBox="0 0 20 20" id="liveDemo"><use xlink:href="#liveDemo_a"/><use xlink:href="#liveDemo_b"/><use xlink:href="#liveDemo_c"/><use xlink:href="#liveDemo_d"/><use xlink:href="#liveDemo_e"/><use xlink:href="#liveDemo_f"/><use xlink:href="#liveDemo_g"/><use xlink:href="#liveDemo_h"/><use xlink:href="#liveDemo_i"/><use xlink:href="#liveDemo_j"/><use xlink:href="#liveDemo_k"/><use xlink:href="#liveDemo_l"/><use xlink:href="#liveDemo_m"/><use xlink:href="#liveDemo_n"/><defs><path id="liveDemo_h" fill-rule="evenodd" d="M6.338 6.35a.5.5 0 01.707 0l1.22 1.22a.5.5 0 01-.707.708l-1.22-1.221a.5.5 0 010-.707z"/><path id="liveDemo_a" fill-rule="evenodd" d="M19.5 4.157H.5v-1h19v1z"/><path id="liveDemo_c" d="M3.915 2.566a.487.487 0 100-.975.487.487 0 000 .975z"/><path id="liveDemo_d" d="M5.423 2.566a.487.487 0 100-.975.487.487 0 000 .975z"/><path id="liveDemo_e" fill-rule="evenodd" d="M12.075 12.09a.5.5 0 01.708 0l7.07 7.056a.5.5 0 11-.706.708l-7.07-7.057a.5.5 0 01-.002-.707z"/><path id="liveDemo_f" fill-rule="evenodd" d="M10 4.833a.5.5 0 01.5.5v1.726a.5.5 0 01-1 0V5.333a.5.5 0 01.5-.5z"/><path id="liveDemo_g" fill-rule="evenodd" d="M10 12.465a.5.5 0 01.5.5v1.727a.5.5 0 11-1 0v-1.727a.5.5 0 01.5-.5z"/><path id="liveDemo_b" d="M2.408 2.566a.487.487 0 100-.975.487.487 0 000 .975z"/><path id="liveDemo_i" fill-rule="evenodd" d="M13.662 6.35a.5.5 0 010 .707l-1.22 1.22a.5.5 0 11-.708-.706l1.221-1.221a.5.5 0 01.707 0z"/><path id="liveDemo_j" fill-rule="evenodd" d="M8.266 11.747a.5.5 0 010 .707l-1.221 1.22a.5.5 0 01-.707-.707l1.22-1.22a.5.5 0 01.708 0z"/><path id="liveDemo_k" fill-rule="evenodd" d="M12.453 10.012a.5.5 0 01.5-.5h1.726a.5.5 0 110 1h-1.726a.5.5 0 01-.5-.5z"/><path id="liveDemo_l" fill-rule="evenodd" d="M4.82 10.012a.5.5 0 01.5-.5h1.727a.5.5 0 010 1H5.321a.5.5 0 01-.5-.5z"/><path id="liveDemo_m" fill-rule="evenodd" d="M0 1.9C0 .854.854 0 1.9 0h16.2c1.046 0 1.9.854 1.9 1.9v13.373c0 .518-.219.986-.568 1.315a.5.5 0 01-.685-.728.803.803 0 00.253-.587V1.9c0-.494-.406-.9-.9-.9H1.9c-.494 0-.9.406-.9.9v13.373c0 .445.36.806.806.806h11.736a.5.5 0 110 1H1.806A1.806 1.806 0 010 15.273V1.9z"/><path id="liveDemo_n" d="M9.243 8.868l.515.175c.09.03.19.014.265-.042l.436-.325a.29.29 0 01.462.235l-.007.543a.29.29 0 00.122.24l.444.314a.29.29 0 01-.081.512l-.52.162a.29.29 0 00-.19.19l-.16.519a.29.29 0 01-.513.081l-.314-.444a.29.29 0 00-.24-.122l-.543.007a.29.29 0 01-.235-.462l.325-.436a.29.29 0 00.042-.265l-.175-.515a.29.29 0 01.367-.367z"/></defs></symbol><symbol viewBox="0 0 20 19" id="message"><path fill-rule="evenodd" clip-rule="evenodd" d="M10 1C4.929 1 1 4.337 1 8.251c0 1.99 1 3.815 2.662 5.145a.5.5 0 01.135.614l-1.495 2.985 4.159-1.936a.5.5 0 01.357-.025c1.001.307 2.049.47 3.182.468 5.071 0 9-3.337 9-7.25C19 4.336 15.071 1 10 1zM0 8.251C0 3.604 4.576 0 10 0s10 3.604 10 8.251c0 4.647-4.576 8.251-10 8.251a12.151 12.151 0 01-3.288-.457l-5.289 2.462a.5.5 0 01-.658-.677l1.96-3.914C1.052 12.45 0 10.462 0 8.25z"/></symbol><symbol viewBox="0 0 18 18" id="monsterEye"><path fill-rule="evenodd" clip-rule="evenodd" d="M18 9A9 9 0 11.352 6.5 11.87 11.87 0 010 3.652c0-.759.095-1.518.238-2.277v-.047C.333.854.428.427.57 0l2.824 1.958A8.962 8.962 0 019 0c2.12 0 4.067.732 5.605 1.958L17.43 0c.142.427.237.854.332 1.328v.047c.143.76.238 1.518.238 2.277 0 .98-.127 1.938-.352 2.848.23.794.352 1.633.352 2.5zm-9 4.304a4.304 4.304 0 100-8.608 4.304 4.304 0 000 8.608z"/><path d="M9.747 9.747l.934 5.23 2.801-1.196v-2.39L9.747 9.746zm6.297-4.66c0 1.729-3.154 3.13-7.044 3.13-3.89 0-7.043-1.401-7.043-3.13 0-1.729 3.153-3.13 7.043-3.13s7.044 1.401 7.044 3.13z"/></symbol><symbol viewBox="0 0 186 30" id="monsterLogoText"><path fill-rule="evenodd" clip-rule="evenodd" d="M116.757 12.012c-.62 0-1.08.185-1.378.555-.299.372-.478.867-.538 1.486h3.394c.049-.656-.052-1.16-.301-1.513-.25-.352-.641-.528-1.177-.528zm3.395 6.689c-.366.291-.862.538-1.489.739-.625.2-1.292.3-1.998.3-1.472 0-2.549-.428-3.23-1.284-.682-.858-1.023-2.034-1.023-3.528 0-1.603.384-2.807 1.15-3.609.767-.802 1.844-1.204 3.232-1.204.461 0 .911.062 1.35.183a3.17 3.17 0 011.168.601c.34.281.615.656.822 1.13.207.475.31 1.065.31 1.768 0 .256-.016.53-.046.822-.03.291-.076.595-.137.911h-5.475c.036.765.234 1.343.593 1.731.358.388.94.584 1.742.584.5 0 .947-.076 1.342-.228.396-.153.697-.307.904-.465l.785 1.549zm-14.62-8.33h1.259V8.658l2.372-.674v2.389h2.227v2.004h-2.227v3.5c0 .631.064 1.084.192 1.358.128.273.369.41.722.41.243 0 .452-.025.629-.073a4.53 4.53 0 00.593-.218l.42 1.822a5.91 5.91 0 01-1.15.401 5.52 5.52 0 01-1.332.164c-.84 0-1.457-.215-1.853-.646-.396-.432-.593-1.14-.593-2.124v-4.594h-1.26v-2.004zm-5.148 7.309c.474 0 .852-.106 1.132-.318.28-.213.487-.441.62-.684v-1.185a6.558 6.558 0 00-1.086-.019 3.97 3.97 0 00-.921.165 1.557 1.557 0 00-.64.364.816.816 0 00-.237.601c0 .34.101.606.302.793.2.189.477.283.83.283zm-3.01-6.78a7.834 7.834 0 011.733-.52 11.23 11.23 0 012.099-.191c.632 0 1.162.076 1.587.227.427.152.765.369 1.013.648.25.279.426.614.53 1.002.104.39.156.827.156 1.313 0 .535-.019 1.072-.056 1.612a29.076 29.076 0 00-.063 1.595 18 18 0 00.044 1.523c.037.492.129.957.275 1.393h-1.935l-.384-1.257h-.09a3.238 3.238 0 01-1.014.976c-.432.273-.988.41-1.67.41a3.26 3.26 0 01-1.15-.191 2.488 2.488 0 01-.876-.548 2.498 2.498 0 01-.566-.838 2.795 2.795 0 01-.2-1.084c0-.56.124-1.03.374-1.413s.609-.693 1.077-.93c.468-.236 1.028-.4 1.68-.492a11.904 11.904 0 012.18-.082c.086-.681.036-1.17-.145-1.467-.184-.298-.591-.447-1.224-.447a8.31 8.31 0 00-1.506.147c-.529.096-.964.224-1.304.382l-.566-1.769zm-2.867 5.521c0 .426.054.736.164.932.11.194.286.29.529.29.146 0 .29-.01.43-.036a2.58 2.58 0 00.52-.164l.255 1.858c-.195.098-.492.196-.894.293a5.273 5.273 0 01-1.241.146c-.694 0-1.223-.162-1.588-.483-.365-.323-.548-.853-.548-1.595V6.725h2.373v9.696zm-8.232-4.3c-.463 0-.824.116-1.086.346-.261.232-.465.577-.61 1.039v3.791c.17.135.355.24.555.32.2.078.466.118.795.118.681 0 1.192-.24 1.532-.72.341-.48.512-1.272.512-2.38 0-.802-.134-1.42-.402-1.858-.267-.437-.7-.656-1.296-.656zm-4.07-1.749h1.733l.275 1.093h.072c.318-.462.691-.802 1.123-1.021.433-.218.958-.329 1.58-.329 1.143 0 2.001.363 2.573 1.086.572.722.858 1.886.858 3.49 0 .779-.092 1.48-.274 2.106-.183.626-.453 1.157-.813 1.594a3.552 3.552 0 01-1.314 1.003c-.517.23-1.11.346-1.78.346a4.33 4.33 0 01-.93-.083 3.153 3.153 0 01-.73-.263v3.736h-2.373V10.372zm-9.51 9.114v-4.96c0-.838-.079-1.432-.237-1.785-.158-.352-.486-.53-.986-.53-.414 0-.748.114-1.004.338a2.14 2.14 0 00-.584.866v6.07h-2.372v-9.113h1.843l.273 1.202h.073c.28-.389.637-.728 1.068-1.02.433-.292.99-.439 1.671-.439.584 0 1.061.12 1.433.357.37.237.66.635.866 1.194.28-.474.64-.85 1.077-1.13.438-.28.968-.42 1.588-.42.511 0 .947.061 1.305.182.36.122.652.33.877.629.224.298.392.696.501 1.194.11.497.165 1.13.165 1.896v5.469h-2.373v-5.123c0-.716-.076-1.255-.228-1.613-.152-.358-.49-.538-1.013-.538-.426 0-.764.115-1.013.346-.25.231-.436.548-.557.948v5.98h-2.373zm-10.55-7.474c-.62 0-1.08.185-1.378.555-.298.372-.478.867-.538 1.486h3.394c.049-.656-.05-1.16-.3-1.513-.25-.352-.643-.528-1.177-.528zm3.395 6.689c-.365.291-.86.538-1.487.739-.627.2-1.293.3-2 .3-1.472 0-2.548-.428-3.23-1.284-.681-.858-1.022-2.034-1.022-3.528 0-1.603.384-2.807 1.15-3.609.767-.802 1.843-1.204 3.231-1.204.462 0 .913.062 1.35.183.438.122.828.323 1.168.601.342.281.615.656.822 1.13.207.475.31 1.065.31 1.768 0 .256-.016.53-.045.822a10.9 10.9 0 01-.137.911h-5.476c.037.765.234 1.343.594 1.731.358.388.94.584 1.742.584.5 0 .946-.076 1.342-.228.396-.153.697-.307.903-.465l.785 1.549zM58.302 8.95h-3.724v10.535h-2.5V8.95h-3.742V6.725h9.966V8.95zm127.319 3.645a3.103 3.103 0 00-1.022-.2c-.426 0-.781.112-1.068.337a1.626 1.626 0 00-.575.865v5.889h-2.372v-9.114h1.843l.274 1.201h.073c.207-.448.487-.795.84-1.037a2.135 2.135 0 011.24-.366c.316 0 .676.068 1.077.202l-.31 2.223zm-10.404-.583c-.62 0-1.08.185-1.378.555-.298.372-.477.866-.538 1.486h3.395c.049-.656-.052-1.16-.302-1.513-.249-.352-.641-.528-1.177-.528zm3.396 6.689c-.366.29-.862.538-1.488.739-.627.2-1.293.3-2 .3-1.471 0-2.548-.428-3.23-1.284-.682-.858-1.022-2.034-1.022-3.528 0-1.603.383-2.807 1.15-3.609.766-.802 1.843-1.204 3.231-1.204.462 0 .913.062 1.35.183.44.122.828.323 1.168.601.341.281.615.656.822 1.13.207.475.31 1.065.31 1.768 0 .256-.015.53-.046.822-.03.291-.075.594-.136.911h-5.476c.036.765.234 1.343.593 1.731.36.388.94.584 1.744.584a3.71 3.71 0 001.34-.228c.396-.153.697-.307.904-.465l.786 1.549zm-14.621-8.33h1.259V8.658l2.373-.674v2.389h2.227v2.004h-2.227v3.5c0 .631.064 1.084.192 1.358.128.273.368.41.72.41.244 0 .454-.025.63-.073.178-.049.374-.122.594-.218l.42 1.822a5.91 5.91 0 01-1.15.401 5.525 5.525 0 01-1.333.164c-.84 0-1.457-.215-1.852-.646-.396-.432-.594-1.14-.594-2.125v-4.593h-1.26v-2.004zm-2.975 6.599a.68.68 0 00-.31-.583 3.727 3.727 0 00-.767-.402c-.304-.122-.64-.245-1.004-.374a3.767 3.767 0 01-1.004-.528 2.904 2.904 0 01-.767-.856c-.206-.347-.31-.794-.31-1.34 0-.9.268-1.586.803-2.06.536-.474 1.309-.712 2.318-.712.694 0 1.32.074 1.88.22.56.145.999.31 1.314.492l-.529 1.713c-.28-.11-.632-.224-1.058-.347a4.735 4.735 0 00-1.296-.18c-.706 0-1.06.273-1.06.818 0 .22.104.395.312.529.207.134.462.258.766.374.304.116.64.24 1.003.374.366.133.701.306 1.005.519.304.213.559.489.766.83.207.34.31.778.31 1.312 0 .924-.295 1.65-.885 2.179-.59.527-1.475.792-2.655.792-.645 0-1.25-.083-1.816-.246-.566-.165-1.026-.355-1.379-.574l.658-1.768c.279.158.65.312 1.113.465a4.53 4.53 0 001.424.228c.352 0 .636-.067.848-.2.213-.135.32-.359.32-.675zm-8.141 2.516v-5.178c0-.74-.107-1.275-.32-1.604-.213-.328-.574-.492-1.085-.492-.45 0-.831.13-1.141.392a2.18 2.18 0 00-.666.976v5.906h-2.373v-9.114h1.88l.274 1.201h.073c.28-.388.65-.727 1.113-1.019.463-.292 1.058-.439 1.79-.439.45 0 .85.062 1.203.183.354.122.652.323.895.601.243.281.426.66.547 1.14.122.48.183 1.073.183 1.777v5.67h-2.373zm-13.38-4.558c0 .4.037.772.11 1.112.074.34.183.638.33.893.146.255.337.452.574.592.238.14.52.21.85.21.62 0 1.082-.225 1.386-.675.304-.449.456-1.16.456-2.132 0-.838-.14-1.516-.42-2.032-.28-.517-.754-.775-1.423-.775-.584 0-1.04.22-1.37.656-.328.437-.492 1.154-.492 2.151zm-2.445 0c0-1.543.377-2.731 1.132-3.563.754-.833 1.814-1.25 3.176-1.25.73 0 1.362.116 1.898.347.536.23.98.557 1.333.975.352.42.617.927.793 1.523.177.595.266 1.25.266 1.968 0 1.542-.376 2.73-1.123 3.563-.748.833-1.805 1.25-3.167 1.25-.73 0-1.363-.116-1.898-.347a3.645 3.645 0 01-1.342-.975 4.085 4.085 0 01-.803-1.523 6.901 6.901 0 01-.265-1.968zm-4.197-2.06l.273-2.534h-.109l-.786 2.041-2.719 4.758h-.803l-2.866-4.774-.803-2.025h-.091l.365 2.515v6.636h-2.373V6.725h2.282l3.413 5.833.602 1.458h.073l.548-1.495 3.23-5.796h2.264v12.76h-2.5v-6.618zM19.5 18.225a6.224 6.224 0 01-6.21-5.82c.686.151 1.381.279 2.085.38a4.2 4.2 0 005.356 3.231l-.154-2.765 2.115 1.477c.466-.545.795-1.21.934-1.943a28.464 28.464 0 002.085-.38 6.224 6.224 0 01-6.21 5.82zm8.25-8.475a26.675 26.675 0 01-4.238 1.005 26.759 26.759 0 01-8.024 0A26.412 26.412 0 0111.25 9.75h-.001V12a8.25 8.25 0 0016.5.005V9.75z"/><path fill-rule="evenodd" clip-rule="evenodd" d="M33.367 22.183l-4.06-2.835.322 5.793A19.41 19.41 0 0119.5 27.975a19.411 19.411 0 01-10.128-2.833l.323-5.795-4.062 2.836a19.556 19.556 0 01-3.499-4.827A17.759 17.759 0 014.15 12.5a16.6 16.6 0 01-.845-2.397 16.788 16.788 0 01-.407-6.728l5.808 4.056A17.817 17.817 0 0119.5 3.81a17.817 17.817 0 0110.795 3.621l5.807-4.056a16.789 16.789 0 01-1.251 9.125 17.747 17.747 0 012.014 4.856 19.554 19.554 0 01-3.498 4.827zm4.697-7.724a19.832 19.832 0 00-.967-2.102 18.872 18.872 0 00.852-10.216l-.01-.048A18.644 18.644 0 0037.4 0l-7.103 4.96A19.832 19.832 0 0019.5 1.786 19.832 19.832 0 008.704 4.96L1.6 0a18.88 18.88 0 00-.54 2.093l-.008.047a18.885 18.885 0 00.851 10.217A19.834 19.834 0 000 17.6a21.482 21.482 0 003.95 5.758c.476.498.976.973 1.499 1.423L7.44 23.39l-.156 2.81A21.431 21.431 0 0019.5 30a21.432 21.432 0 0012.216-3.802l-.156-2.807 1.991 1.39a21.657 21.657 0 003.807-4.284A21.493 21.493 0 0039 17.6a19.8 19.8 0 00-.936-3.141z"/></symbol><symbol fill="none" viewBox="0 0 164 161" id="moto3Box"><path fill-rule="evenodd" clip-rule="evenodd" d="M82.218 59.63l50.472 24.993v51.383L82.218 116.79V59.63zm0 0L31.746 84.622v51.383l50.472-19.215V59.63z" fill="#006023"/><path fill-rule="evenodd" clip-rule="evenodd" d="M31.746 84.623L14.31 67.663l52.014-24.705L82.218 59.63 31.746 84.623z" fill="#1B9B4A"/><path fill-rule="evenodd" clip-rule="evenodd" d="M132.69 84.623l17.435-16.96-52.014-24.705L82.218 59.63l50.472 24.993z" fill="#1AB744"/><path d="M27.93 47.684v22.142m106.195-28.752v13.437M92.514 16.784v13.347M82.218 1v8.525M69.83 20.026v4.263M1.37 92.221v4.263" stroke="#1AB744" stroke-width="2" stroke-linecap="round" stroke-linejoin="round"/><g mask="url(#moto3Box_a)"><path d="M162.908 93.377v9.247" stroke="#1AB744" stroke-width="2" stroke-linecap="round" stroke-linejoin="round"/></g><path fill-rule="evenodd" clip-rule="evenodd" d="M60.493 28.78L38.767 46.16v34.76l43.451 34.76 43.45-34.76V46.16l-21.725-17.38-21.725 17.38-21.725-17.38z" fill="#FF8900"/><path fill-rule="evenodd" clip-rule="evenodd" d="M60.493 63.54l21.725-17.38-21.725-17.38v34.76z" fill="#FD9A00"/><path fill-rule="evenodd" clip-rule="evenodd" d="M38.767 46.16l21.726 17.38V28.78L38.767 46.16z" fill="#FCC400"/><path fill-rule="evenodd" clip-rule="evenodd" d="M103.943 63.54l21.725-17.38-21.725-17.38v34.76z" fill="#FFE747"/><path fill-rule="evenodd" clip-rule="evenodd" d="M82.218 46.16l21.725 17.38V28.78L82.218 46.16z" fill="#FFCD22"/><path fill-rule="evenodd" clip-rule="evenodd" d="M82.218 80.92l21.725-17.38-21.725-17.38v34.76z" fill="#FC9300"/><path fill-rule="evenodd" clip-rule="evenodd" d="M60.493 63.54l21.725 17.38V46.16L60.493 63.54z" fill="#FD7000"/><path fill-rule="evenodd" clip-rule="evenodd" d="M103.943 98.3l21.725-17.379-21.725-17.381V98.3z" fill="#FF8900"/><path fill-rule="evenodd" clip-rule="evenodd" d="M82.218 80.92l21.725 17.38V63.54L82.218 80.92z" fill="#E12A15"/><path fill-rule="evenodd" clip-rule="evenodd" d="M60.493 98.3l21.725-17.379L60.493 63.54V98.3z" fill="#DC2400"/><path fill-rule="evenodd" clip-rule="evenodd" d="M38.767 80.92L60.493 98.3V63.54L38.767 80.92z" fill="#FF8F04"/><path fill-rule="evenodd" clip-rule="evenodd" d="M82.218 115.68l21.725-17.38-21.725-17.38v34.76z" fill="#AF0B00"/><path fill-rule="evenodd" clip-rule="evenodd" d="M60.493 98.3l21.725 17.38V80.92L60.493 98.3z" fill="#BA1200"/><path fill-rule="evenodd" clip-rule="evenodd" d="M103.943 63.54l21.725 17.38V46.16l-21.725 17.38z" fill="#FCC400"/><path fill-rule="evenodd" clip-rule="evenodd" d="M38.767 80.92l21.726-17.38-21.726-17.38v34.76z" fill="#FFA800"/><path fill-rule="evenodd" clip-rule="evenodd" d="M31.746 136.006L82.218 161v-52.539L31.746 84.623v51.383z" fill="#1B9B4A"/><path fill-rule="evenodd" clip-rule="evenodd" d="M82.218 108.461V161l50.473-24.995V84.624L82.218 108.46zM1 88.562l49.852 24.994 31.366-5.094-50.473-23.838L1 88.562z" fill="#1AB744"/><path fill-rule="evenodd" clip-rule="evenodd" d="M82.218 108.462l31.367 5.094 49.851-24.994-30.745-3.939-50.473 23.839z" fill="#1B9B4A"/></symbol><symbol fill="none" viewBox="0 0 161 160" id="motoHtmlBox"><path fill-rule="evenodd" clip-rule="evenodd" d="M95.523 91.06c.445-.716 1.082-1.404 2.007-2.049 4.22-2.943 7.517-1.36 8.034-.353.265.517.398 1.105.227 1.656-.163.526-.605 1.02-1.48 1.382-1.968.816-2.928 2.141-3.193 4.1-.243 1.793.07 3.736.544 2.35.897-2.623 2.015-3.35 4.106-3.914 1.738-.47 3.805-.471 6.224-1.876 3.627-2.108 3.724-5.167 10.563-11.253 6.274-6.236 10.156-14.862 10.156-24.391 0-19.025-15.471-34.448-34.556-34.448-14.428 0-26.788 8.815-31.962 21.336l-.002-.002c-1.253 2.762-2.565 6.535-4.876 8.301-2.31 1.768-4.16 4.16-4.813 7.967-.652 3.806-2.569 7.442-5.546 9.352-1.77 1.136.245.571 1.468 0 1.224-.57 3.202-1.583 5.064-4.846 1.773-3.108 4.464-2.182 5.24-1.515.944.809 2.026 4.33-1.699 6.776-3.724 2.447-6.142 4.356-8.06 6.492-1.992 2.215-2.702 3.948-2.992 4.845-.29.898.544-.034 1.17-.66.625-.624 4.295-4.519 9.21-5.049 4.52-.488 6.81 4.343 2.385 6.73-4.26 2.296-6.565 3.486-8.278 6.096s-2.584 7.34-3.1 9.978c-.517 2.637-.897 6.022-4.268 7.137-1.333.435-1.17.815.543.435 1.713-.38 5.437-1.996 6.607-6.971 1.169-4.976 3.316-7.84 7.506-6.57 4.538 1.374 2.67 8.043-.138 10.183-3.031 2.31-6.28 4.432-8.183 7.504-1.718 2.772-2.393 5.6-2.04 7.53.353 1.932.463-3.126 4.214-6.252 3.91-3.258 8.374-2.638 12.915-7.286 4.54-4.65 3.752-9.815 4.404-12.724.485-2.16 1.08-5.512 3.713-7.385.914-.65 2.07-1.123 3.555-1.307 4.203-.518 4.058 3.6 2.598 5.214-.15.166-.317.307-.493.412-1.881 1.125-5.28 3.08-5.43 7.742-.164 5.081.618 10.854-4.195 14.24-3.6 2.532-3.01 2.181-2.385 2.181s6.076.164 9.733-8.101c.952-2.176 1.605-6.635 4.84-7.912 3.235-1.278 4.894 1.55 4.73 2.637-.163 1.088-1.522 2.529-2.854 3.562s-1.876 2.8-1.196 4.622c.217.407.211-1.379 1.584-2.404 2.059-1.538 5.444-1.294 6.742-4.779 1.068-2.866-.028-6 1.657-8.712z" fill="#AF1602"/><path fill-rule="evenodd" clip-rule="evenodd" d="M44.003 86.986c.975-.456 2.997-.215 3.895-1.112.897-.897 1.173-1.834 1.222-2.287.048-.427.248-.611.353-.026.1.565.717 3.624-1.882 4.75-2.376 1.03-2.528.163-3.976 1.193-1.203.856-.826 2.549-1.128 2.607-.356.068-1.625-3.658 1.516-5.125z" fill="#AF1602"/><path fill-rule="evenodd" clip-rule="evenodd" d="M113.408 49.433c-3.748-3.748-7.388-2.082-7.388-2.082s1.667-3.639-2.08-7.387c-3.75-3.748-8.205-1.975-10.55.37L79.855 53.868l5.524 5.524s10.803-10.883 11.841-11.92c1.038-1.039 1.858-1.128 2.375-.611.46.46.593 1.194-.56 2.348l-11.92 11.92 2.564 2.564 2.565 2.564 11.92-11.92c1.153-1.153 1.887-1.02 2.347-.56.516.517.427 1.336-.61 2.374-1.04 1.039-11.922 11.842-11.922 11.842l5.524 5.524 13.534-13.535c2.346-2.345 4.118-6.801.37-10.55z" fill="#FBE9E7"/><path fill-rule="evenodd" clip-rule="evenodd" d="M80.99 160l-44.896-22.23V92.065l44.894 21.203V160z" fill="#2196F3"/><path fill-rule="evenodd" clip-rule="evenodd" d="M80.989 160l44.894-22.231V92.065L80.99 113.268V160z" fill="#64B5F6"/><path fill-rule="evenodd" clip-rule="evenodd" d="M36.095 92.065L8.747 95.568 53.09 117.8l27.9-4.532-44.894-21.204z" fill="#64B5F6"/><path fill-rule="evenodd" clip-rule="evenodd" d="M125.883 92.065l27.348 3.503L108.89 117.8l-27.9-4.532 44.894-21.204z" fill="#2196F3"/><path fill-rule="evenodd" clip-rule="evenodd" d="M36.095 79.003a.747.747 0 01-.747-.747V57.003a.747.747 0 111.494 0v21.253a.747.747 0 01-.747.747zM139.96 53.568a.747.747 0 01-.747-.747V39.923a.747.747 0 011.494 0v12.898a.747.747 0 01-.747.747zM90.438 14.303a.747.747 0 01-.747-.747V.747a.747.747 0 111.494 0v12.81a.747.747 0 01-.747.746zm16.621 4.091a.747.747 0 01-.747-.747V9.465a.747.747 0 111.494 0v8.182a.747.747 0 01-.747.747zm-36.604 5.817a.747.747 0 01-.747-.747v-4.091a.747.747 0 011.494 0v4.091a.747.747 0 01-.747.747zM.747 105.245a.747.747 0 01-.747-.747v-4.091a.747.747 0 011.494 0v4.091a.747.747 0 01-.747.747z" fill="#64B5F6"/><g mask="url(#motoHtmlBox_a)"><path fill-rule="evenodd" clip-rule="evenodd" d="M159.257 110.464a.747.747 0 01-.747-.747v-8.875a.747.747 0 111.494 0v8.875a.747.747 0 01-.747.747z" fill="#64B5F6"/></g><path fill-rule="evenodd" clip-rule="evenodd" d="M91.658 27.553a1.12 1.12 0 01-.343-2.187c2.418-.779 4.711-1.053 7.667-.934a1.122 1.122 0 011.073 1.167 1.125 1.125 0 01-1.166 1.072c-2.677-.115-4.737.136-6.888.828a1.11 1.11 0 01-.343.054zM69.701 45.58a1.12 1.12 0 01-1.035-1.549c.191-.459 4.805-11.31 17.329-16.848a1.12 1.12 0 11.905 2.05c-11.674 5.162-16.12 15.554-16.163 15.658-.18.43-.597.69-1.036.69z" fill="#FBE9E7"/></symbol><symbol fill="none" viewBox="0 0 42 20" id="one"><rect width="42" height="20" rx="10" fill="#2196F3"/><path d="M10 15a5 5 0 100-10 5 5 0 000 10z" fill="#fff"/><path d="M10 12.391a2.391 2.391 0 100-4.782 2.391 2.391 0 000 4.782z" fill="#2196F3"/><path d="M20.87 5a5 5 0 00-5 5v3.696c0 .717.586 1.304 1.304 1.304.717 0 1.304-.587 1.304-1.304V10a2.384 2.384 0 012.391-2.391A2.384 2.384 0 0123.26 10v3.696c0 .717.587 1.304 1.305 1.304.717 0 1.304-.587 1.304-1.304V10a5 5 0 00-5-5zm15.87 5a5 5 0 00-10 0v.217c0 .087 0 .153.021.218A4.994 4.994 0 0031.739 15c.718 0 1.305-.587 1.305-1.304 0-.718-.587-1.305-1.305-1.305a2.423 2.423 0 01-1.848-.87h5.544c.717 0 1.304-.586 1.304-1.304V10zm-5-2.391c.934 0 1.738.521 2.13 1.304h-4.261a2.365 2.365 0 012.13-1.304zM15 7.029a6.85 6.85 0 00-.132-1.265v-.026A6.008 6.008 0 0014.683 5l-2.51 1.74 2.404 2.608A6.695 6.695 0 0015 7.029zm-10 0c0-.422.053-.843.132-1.265v-.026c.053-.264.106-.5.185-.738l2.51 1.74-2.404 2.608A6.694 6.694 0 015 7.029zm5.415 3.386l.518 2.905 1.557-.664v-1.328l-2.075-.913z" fill="#fff"/><path d="M10 9.565c2.161 0 3.913-.778 3.913-1.739 0-.96-1.752-1.74-3.913-1.74-2.161 0-3.913.78-3.913 1.74S7.839 9.566 10 9.566z" fill="#fff"/></symbol><symbol viewBox="0 0 18 18" id="one--"><path fill-rule="evenodd" clip-rule="evenodd" d="M17.095 8.548A8.548 8.548 0 11.335 6.173 11.274 11.274 0 010 3.47c0-.721.09-1.442.226-2.163v-.045C.316.811.406.405.542 0l2.683 1.86A8.511 8.511 0 018.547 0c2.012 0 3.862.696 5.323 1.86L16.553 0c.136.405.226.81.316 1.261v.045c.136.721.226 1.442.226 2.163 0 .93-.12 1.84-.334 2.704.218.754.334 1.55.334 2.375zm-4.46 0a4.07 4.07 0 01-.506 1.973L9.257 9.257l.567 3.175a4.088 4.088 0 01-5.156-5.179c1.095.347 2.434.551 3.88.551 1.446 0 2.784-.204 3.879-.55.135.406.209.841.209 1.294z"/></symbol><symbol viewBox="0 0 20 20" id="pause"><path d="M10 0C4.478 0 0 4.477 0 10s4.478 10 10 10 10-4.477 10-10S15.522 0 10 0zM7 6h2v8H7V6zm4 0h2v8h-2V6z" fill-rule="evenodd"/></symbol><symbol viewBox="0 0 20 20" id="percents"><path fill-rule="evenodd" clip-rule="evenodd" d="M11.8.947c1.237-.857 3.06-.095 3.33 1.378 1.467-.317 2.863 1.08 2.547 2.547 1.478.268 2.23 2.093 1.378 3.327 1.266.813 1.257 2.788 0 3.601.856 1.235.097 3.059-1.379 3.329.319 1.468-1.08 2.863-2.546 2.547-.268 1.48-2.094 2.23-3.328 1.378-.813 1.263-2.787 1.261-3.601 0-1.235.857-3.057.097-3.328-1.378-1.468.318-2.863-1.08-2.546-2.547-1.48-.267-2.232-2.093-1.38-3.327C-.32 10.989-.31 9.014.946 8.2.09 6.964.85 5.143 2.325 4.873c-.32-1.47 1.082-2.861 2.547-2.547C5.14.847 6.965.094 8.2.947c.813-1.262 2.788-1.263 3.602 0zm-.669.989C10.9.687 9.101.689 8.87 1.936a.5.5 0 01-.91.18c-.692-1.062-2.352-.374-2.09.866a.5.5 0 01-.772.515c-1.046-.717-2.316.556-1.6 1.6a.5.5 0 01-.515.773c-1.239-.264-1.93 1.396-.866 2.089a.5.5 0 01-.181.91c-1.248.233-1.245 2.03 0 2.262a.5.5 0 01.18.91c-1.062.692-.374 2.353.867 2.091a.5.5 0 01.516.772c-.718 1.047.554 2.316 1.598 1.599a.5.5 0 01.773.515c-.263 1.243 1.4 1.927 2.09.866a.5.5 0 01.91.181c.232 1.247 2.03 1.247 2.262 0a.5.5 0 01.911-.18c.69 1.062 2.352.376 2.09-.866a.5.5 0 01.772-.516c1.043.718 2.316-.553 1.599-1.599a.5.5 0 01.515-.772c1.241.263 1.928-1.4.867-2.09a.5.5 0 01.181-.911c1.245-.231 1.246-2.03 0-2.262a.5.5 0 01-.181-.91c1.062-.692.373-2.352-.867-2.09a.5.5 0 01-.515-.772c.717-1.043-.554-2.317-1.6-1.6a.5.5 0 01-.771-.516c.263-1.238-1.399-1.927-2.09-.864a.5.5 0 01-.91-.181z"/><path fill-rule="evenodd" clip-rule="evenodd" d="M13.66 6.34a.5.5 0 010 .707L7.047 13.66a.5.5 0 01-.707-.707l6.613-6.613a.5.5 0 01.707 0zm-6.14.44a.74.74 0 10.002 1.482.74.74 0 00-.002-1.481zm-1.74.74a1.74 1.74 0 113.482.002A1.74 1.74 0 015.78 7.52zm6.7 4.22a.74.74 0 10.002 1.482.74.74 0 00-.002-1.482zm-1.74.74a1.74 1.74 0 113.482.002 1.74 1.74 0 01-3.482-.002z"/></symbol><symbol viewBox="0 0 20 20" id="pigBank"><path fill-rule="evenodd" clip-rule="evenodd" d="M13.417 6.444A5.677 5.677 0 009.62 5.318a.5.5 0 01-.066-.998 6.677 6.677 0 014.464 1.324.5.5 0 01-.6.8zm6.083.752a.5.5 0 01.5.5 2.153 2.153 0 01-2.152 2.152.5.5 0 010-1c.636 0 1.152-.516 1.152-1.152a.5.5 0 01.5-.5z"/><path fill-rule="evenodd" clip-rule="evenodd" d="M8.208 2.412a3.384 3.384 0 00-4.447-.955.5.5 0 000 .866 2.4 2.4 0 011.107 1.426c-1.552 1.03-2.683 2.53-3.07 4.273H.5a.5.5 0 00-.5.5v3.305a.5.5 0 00.5.5h1.922c1.336 2.464 4.25 4.13 7.578 4.13 4.527 0 8.348-3.105 8.348-7.109 0-4.583-4.971-7.91-10.14-6.936zm-3.2-.369c.986-.19 2.013.26 2.53 1.174a.5.5 0 00.545.242c4.867-1.097 9.265 2.037 9.265 5.89 0 3.297-3.206 6.108-7.348 6.108-3.13 0-5.751-1.624-6.822-3.847a.5.5 0 00-.45-.283H1V9.022h1.213a.5.5 0 00.495-.426C2.96 6.9 4.06 5.398 5.686 4.414a.5.5 0 00.237-.497 3.377 3.377 0 00-.914-1.874z"/><path fill-rule="evenodd" clip-rule="evenodd" d="M5.044 8.196a.085.085 0 00.086-.087.087.087 0 10-.173 0c0 .049.037.087.087.087zm-.914-.087a.914.914 0 011.827 0 .913.913 0 01-1.827 0zm2.153 6.56a.5.5 0 01.5.5v2.853a.5.5 0 01-1 0v-2.853a.5.5 0 01.5-.5zm7.434 0a.5.5 0 01.5.5v2.853a.5.5 0 01-1 0v-2.853a.5.5 0 01.5-.5z"/></symbol><symbol viewBox="0 0 20 20" id="pinterest"><path d="M0 3a3 3 0 013-3h14a3 3 0 013 3v14a3 3 0 01-3 3H3a3 3 0 01-3-3V3zm10 1a6 6 0 00-2.187 11.588c-.052-.475-.1-1.203.021-1.721l.704-2.983s-.18-.36-.18-.891c0-.833.484-1.457 1.086-1.457.512 0 .759.384.759.845 0 .515-.327 1.285-.497 1.998-.142.598.3 1.084.89 1.084 1.064 0 1.885-1.124 1.885-2.747 0-1.436-1.032-2.44-2.507-2.44-1.707 0-2.708 1.28-2.708 2.604 0 .515.198 1.068.445 1.368.05.06.056.113.043.173-.045.189-.147.597-.167.68-.027.11-.087.134-.201.08-.749-.348-1.218-1.444-1.218-2.325 0-1.893 1.375-3.63 3.965-3.63 2.08 0 3.7 1.483 3.7 3.465 0 2.068-1.306 3.733-3.116 3.733-.607 0-1.179-.316-1.374-.69l-.375 1.427c-.135.521-.5 1.175-.746 1.573A6.001 6.001 0 1010 4z"/></symbol><symbol viewBox="0 0 32 32" id="pinterestV3"><path d="M15.811 9.455l-.93.116a6.624 6.624 0 00-1.688.56 5.942 5.942 0 00-2.713 2.96 5.607 5.607 0 00-.167.727 3.636 3.636 0 001.324 3.898c.181.11.603.313.727.044.057-.165.096-.336.116-.51.07-.145.11-.303.117-.465-.044-.24-.299-.385-.408-.581a3.962 3.962 0 01-.334-1.251v-.211a3.927 3.927 0 013.047-3.71 4.44 4.44 0 011.673-.123l.807.138a3.137 3.137 0 012.073 1.76 4.43 4.43 0 01.145 2.32c-.08.335-.065.626-.167.931-.371 1.128-.916 2.182-2.145 2.458a1.375 1.375 0 01-1.622-.814 1.098 1.098 0 01-.095-.626c.211-.916.524-1.73.727-2.647a1.31 1.31 0 00-.88-1.716c-.843-.204-1.49.582-1.716 1.09a3.004 3.004 0 00-.145 1.695c.122.246.21.508.261.778a47.78 47.78 0 01-.545 2.182c-.196.728-.32 1.455-.524 2.182-.094.32-.087.662-.167.997v.487c-.05.385-.033.777.051 1.156.044.197 0 .436.073.582a.298.298 0 00.05.182c.299 0 .728-.793.859-1.018.283-.451.527-.926.727-1.419.197-.458.226-.967.378-1.454a5.92 5.92 0 00.328-1.244c.094.207.252.377.45.487a3.04 3.04 0 002.408.488 4.364 4.364 0 002.574-1.557 6.823 6.823 0 001.004-1.97c.124-.364.145-.772.24-1.157a4.88 4.88 0 00-.356-2.785c-.837-1.899-2.655-3.004-5.557-2.96z"/><path d="M16 0C7.163 0 0 7.163 0 16s7.163 16 16 16 16-7.163 16-16S24.837 0 16 0zm0 30.545C7.967 30.545 1.455 24.033 1.455 16 1.455 7.967 7.967 1.455 16 1.455c8.033 0 14.545 6.512 14.545 14.545 0 8.033-6.512 14.545-14.545 14.545z"/></symbol><symbol viewBox="0 0 40 40" id="play"><path fill-rule="evenodd" clip-rule="evenodd" d="M20 40c11.046 0 20-8.954 20-20S31.046 0 20 0 0 8.954 0 20s8.954 20 20 20zm-2.445-13.036A1 1 0 0116 26.132V13.867a1 1 0 011.555-.832l9.197 6.132a1 1 0 010 1.664l-9.197 6.132z"/></symbol><symbol viewBox="0 0 20 20" id="productComments"><path fill-rule="evenodd" clip-rule="evenodd" d="M0 1.417C0 1.187.187 1 .417 1h19.166c.23 0 .417.187.417.417V14.75h-.417v.417H9.756l-3.211 3.211a.417.417 0 01-.712-.295v-2.916H.417A.417.417 0 010 14.75V1.417zm19.167 12.916v-12.5H.833v12.5H6.25c.23 0 .417.187.417.417v2.327l2.622-2.622a.417.417 0 01.294-.122h9.584z"/><path fill-rule="evenodd" clip-rule="evenodd" d="M4.168 5.584c0-.23.187-.417.417-.417h7.5a.417.417 0 110 .833h-7.5a.417.417 0 01-.417-.416zm0 2.5c0-.23.187-.417.417-.417h10.833a.417.417 0 010 .833H4.585a.417.417 0 01-.417-.416zm0 2.5c0-.23.187-.417.417-.417h10.833a.417.417 0 110 .833H4.585a.417.417 0 01-.417-.416z"/></symbol><symbol viewBox="0 0 20 20" id="productDescription"><path fill-rule="evenodd" clip-rule="evenodd" d="M5.333 2.917c0-.23.187-.417.417-.417h6.667c.23 0 .417.187.417.417v4.166c0 .23-.187.417-.417.417H5.75a.417.417 0 01-.417-.417V2.917zm.834.416v3.334H12V3.333H6.167z"/><path fill-rule="evenodd" clip-rule="evenodd" d="M2 .417C2 .187 2.187 0 2.417 0H18.25c.23 0 .417.187.417.417v10c0 .23-.187.416-.417.416h-5.417v5.417c0 .23-.186.417-.416.417h-10A.417.417 0 012 16.25V.417zm10 10c0-.23.187-.417.417-.417h5.416V.833h-15v15H12v-5.416z"/><path fill-rule="evenodd" clip-rule="evenodd" d="M12.12 15.955l5.834-5.833.59.59-5.834 5.833-.59-.59z"/><path fill-rule="evenodd" clip-rule="evenodd" d="M17.417 13.75c.23 0 .416.187.416.417v3.75c0 .23-.186.416-.416.416H3.25a.417.417 0 110-.833H17v-3.333c0-.23.187-.417.417-.417zm-13.75 5.834c0-.23.186-.417.416-.417h12.5a.417.417 0 110 .833h-12.5a.417.417 0 01-.417-.416zm1.666-10c0-.23.187-.417.417-.417h4.167a.417.417 0 010 .833H5.75a.417.417 0 01-.417-.416zm0 1.666c0-.23.187-.417.417-.417h4.167a.417.417 0 010 .833H5.75a.417.417 0 01-.417-.416zm0 1.667c0-.23.187-.417.417-.417h4.167a.417.417 0 010 .833H5.75a.417.417 0 01-.417-.416z"/></symbol><symbol viewBox="0 0 20 20" id="productIntro"><path fill-rule="evenodd" clip-rule="evenodd" d="M0 14.353c0-.325.263-.588.588-.588H10a.588.588 0 010 1.176H.588A.588.588 0 010 14.353zm0 2.352c0-.324.263-.588.588-.588H10a.588.588 0 110 1.177H.588A.588.588 0 010 16.705zM0 2.588C0 2.263.263 2 .588 2H10c.325 0 .588.263.588.588V12a.588.588 0 01-.588.588H.588A.588.588 0 010 12V2.588zm1.176.588v8.236h8.236V3.176H1.176zm10.589-.588c0-.325.263-.588.588-.588h7.059c.325 0 .588.263.588.588v4.706a.588.588 0 01-.588.588h-7.06a.588.588 0 01-.587-.588V2.588zm1.176.588v3.53h5.882v-3.53h-5.882zm-1.176 6.471c0-.325.263-.588.588-.588h7.059c.325 0 .588.263.588.588v7.059a.588.588 0 01-.588.588h-7.06a.588.588 0 01-.587-.588v-7.06zm1.176.588v5.882h5.882v-5.882h-5.882z"/></symbol><symbol viewBox="0 0 20 20" id="productReviews"><path fill-rule="evenodd" clip-rule="evenodd" d="M0 .417C0 .187.187 0 .417 0h17.5c.23 0 .417.187.417.417V8.75a.417.417 0 01-.834 0V.833H.833v10.834H3.75c.23 0 .417.186.417.417v2.327l2.622-2.622a.417.417 0 01.294-.122h2.084a.417.417 0 010 .833H7.256l-3.211 3.211a.417.417 0 01-.712-.294V12.5H.417A.417.417 0 010 12.084V.417z"/><path fill-rule="evenodd" clip-rule="evenodd" d="M15.005 11.348l-1.3 2.589a.417.417 0 01-.372.23h-1.765l1.616 1.346c.131.11.182.29.128.452l-.857 2.572 2.31-1.586a.417.417 0 01.471 0l2.31 1.585-.858-2.571a.417.417 0 01.129-.452l1.616-1.347h-1.766a.417.417 0 01-.373-.23l-1.289-2.588zm.002-.932l-.373-.187-1.558 3.104h-2.66a.417.417 0 00-.266.737l2.281 1.901-1.16 3.48a.417.417 0 00.632.476L15 17.799l3.098 2.128a.417.417 0 00.63-.476l-1.16-3.48 2.282-1.901a.417.417 0 00-.267-.737h-2.658l-1.545-3.102-.373.185z"/></symbol><symbol viewBox="0 0 20 22" id="profileBold"><path d="M13.694 10.722a5.998 5.998 0 10-7.389 0A10.004 10.004 0 000 20v1a1 1 0 001 1h17.992a1 1 0 001-1v-1a10.004 10.004 0 00-6.298-9.278zM5.997 6.007a3.998 3.998 0 117.997 0 3.998 3.998 0 01-7.997 0zM2 20a7.997 7.997 0 1115.993 0H2z"/></symbol><symbol viewBox="0 0 14 14" id="profileV2"><path d="M6.682 6.682a3.34 3.34 0 100-6.682 3.34 3.34 0 000 6.682zm0 .668A6.69 6.69 0 000 14.032a.668.668 0 00.668.668h12.027a.668.668 0 00.669-.668A6.69 6.69 0 006.682 7.35z"/></symbol><symbol viewBox="0 0 16 16" id="reddit"><path d="M13.828 6.317a1.673 1.673 0 00-1.192.51c-1.129-.792-2.65-1.302-4.335-1.363l.876-4.004 2.777.642a1.25 1.25 0 001.244 1.262 1.273 1.273 0 10-1.115-1.841L9.003.826a.296.296 0 00-.349.228L7.7 5.468c-1.672.07-3.177.58-4.31 1.373a1.666 1.666 0 00-1.213-.524C.42 6.317-.156 8.71 1.453 9.53a3.71 3.71 0 00-.082.792c0 2.689 2.984 4.867 6.65 4.867 3.665 0 6.66-2.178 6.66-4.87a3.124 3.124 0 00-.097-.806c1.577-.818.996-3.196-.752-3.198l-.004.003zM4 9.7a1.248 1.248 0 111.255 1.257A1.259 1.259 0 014 9.7zm6.775 3c-1.151 1.167-4.398 1.167-5.549 0a.303.303 0 11.417-.439c.879.914 3.794.93 4.712 0a.305.305 0 01.42.439zm-.026-1.739a1.265 1.265 0 111.256-1.257 1.248 1.248 0 01-1.256 1.256v.001z"/></symbol><symbol viewBox="0 0 32 32" id="redditV2"><path d="M16 0C7.163 0 0 7.163 0 16s7.163 16 16 16 16-7.163 16-16S24.837 0 16 0zm0 30.545C7.967 30.545 1.455 24.033 1.455 16 1.455 7.967 7.967 1.455 16 1.455c8.033 0 14.545 6.512 14.545 14.545 0 8.033-6.512 14.545-14.545 14.545z"/><path d="M22.217 13.872c-.506 0-.95.213-1.278.544-1.203-.845-2.826-1.39-4.624-1.447l.934-4.271 2.974.677c0 .739.594 1.342 1.322 1.342.742 0 1.338-.619 1.338-1.358 0-.74-.592-1.359-1.338-1.359-.519 0-.967.318-1.19.753l-3.285-.739c-.165-.045-.327.075-.371.243l-1.026 4.708c-1.784.076-3.389.619-4.596 1.465a1.782 1.782 0 00-1.295-.558c-1.875 0-2.489 2.553-.772 3.425a3.93 3.93 0 00-.088.846c0 2.867 3.183 5.19 7.092 5.19 3.925 0 7.109-2.323 7.109-5.19 0-.288-.03-.589-.104-.86 1.682-.876 1.062-3.41-.802-3.411zm-10.483 3.607c0-.753.593-1.359 1.339-1.359.728 0 1.322.602 1.322 1.359 0 .739-.594 1.342-1.322 1.342a1.338 1.338 0 01-1.339-1.342zm7.226 3.198c-1.227 1.246-4.69 1.246-5.919 0-.135-.12-.135-.332 0-.468a.32.32 0 01.446 0c.937.975 4.046.992 5.024 0a.32.32 0 01.446 0c.138.137.138.349.003.468zm-.027-1.854a1.333 1.333 0 01-1.322-1.34c0-.753.594-1.359 1.322-1.359.742 0 1.338.602 1.338 1.359a1.343 1.343 0 01-1.338 1.34z"/></symbol><symbol viewBox="0 0 14 10" id="reviews"><path d="M2.613 6.452c-.308.775-.793 1.54-1.442 2.277a.688.688 0 00-.065.83c.13.206.345.318.579.318a.57.57 0 00.196-.028c1.372-.401 4.578-1.824 4.666-6.388C6.58 1.7 5.292.189 3.617.017a3.31 3.31 0 00-2.539.826A3.284 3.284 0 000 3.273c0 1.54 1.092 2.89 2.613 3.179zM11.064.017A3.305 3.305 0 008.53.843a3.284 3.284 0 00-1.078 2.43c0 1.54 1.092 2.89 2.614 3.179-.309.775-.794 1.54-1.443 2.277a.688.688 0 00-.065.83c.13.206.346.318.579.318a.57.57 0 00.196-.028c1.372-.401 4.578-1.824 4.666-6.388v-.066C14 1.664 12.726.19 11.064.017z"/></symbol><symbol viewBox="0 0 20 20" id="search"><path d="M19.65 17.977l-3.843-3.844a8.734 8.734 0 001.804-5.326 8.748 8.748 0 00-2.58-6.227A8.748 8.748 0 008.804 0a8.749 8.749 0 00-6.226 2.58c-3.434 3.434-3.434 9.02 0 12.454a8.748 8.748 0 006.226 2.579c1.952 0 3.802-.64 5.327-1.804l3.843 3.844a1.18 1.18 0 001.676 0 1.185 1.185 0 000-1.676zm-15.397-4.62a6.444 6.444 0 010-9.101A6.395 6.395 0 018.804 2.37c1.72 0 3.336.67 4.551 1.885a6.394 6.394 0 011.885 4.55c0 1.72-.67 3.336-1.885 4.552a6.394 6.394 0 01-4.55 1.885 6.394 6.394 0 01-4.552-1.886z"/></symbol><symbol viewBox="0 0 20 20" id="send"><use href="#send_a"/><defs><path id="send_a" d="M19.954.305a.514.514 0 00-.018-.04c-.01-.019-.014-.038-.026-.055a.493.493 0 00-.164-.144c-.006-.002-.007-.01-.013-.012-.007-.004-.016 0-.023-.004a.491.491 0 00-.273-.046c-.013.001-.024.006-.037.009-.036.008-.072.011-.106.027l-19 8.595a.5.5 0 00.01.916l7.13 3.037v6.908a.5.5 0 00.942.235l2.671-5.015 4.891 2.946a.496.496 0 00.46.029.5.5 0 00.288-.36L19.991.592c.001-.006-.003-.01-.002-.017a.49.49 0 00-.035-.27zm-2.69 1.751l-4.75 4.83-4.697 4.778-6.073-2.587 15.52-7.021zm-8.83 15.437v-4.35l1.755 1.056-1.754 3.294zm7.41-1.055l-7.109-4.282 3.927-3.993 6.024-6.126-2.843 14.401z"/></defs></symbol><symbol fill="none" viewBox="0 0 20 20" id="shoppingBag"><path d="M15.562 19.375H4.437a1.876 1.876 0 01-1.875-1.969L3.07 6.631a1.875 1.875 0 011.875-1.794h10.112a1.875 1.875 0 011.875 1.794l.506 10.775a1.876 1.876 0 01-1.875 1.969zM4.944 6.094a.625.625 0 00-.625.625l-.507 10.75a.625.625 0 00.625.656h11.125a.624.624 0 00.625-.656l-.506-10.775a.625.625 0 00-.625-.625l-10.112.025z" fill="#90A4AE"/><path d="M13.75 5.469H12.5V4.375a2.5 2.5 0 00-5 0v1.094H6.25V4.375a3.75 3.75 0 017.5 0v1.094z" fill="#90A4AE"/><path d="M15.563 18.75H4.438a1.25 1.25 0 01-1.25-1.313l.506-10.775a1.25 1.25 0 011.25-1.193h10.112a1.25 1.25 0 011.25 1.193l.507 10.776a1.25 1.25 0 01-1.25 1.312z" fill="#90A4AE"/></symbol><symbol fill="none" viewBox="0 0 40 40" id="subscribed"><path fill-rule="evenodd" clip-rule="evenodd" d="M.067 34.133l6.291-10.878.866.501-5.759 9.957 5.481-.928a.5.5 0 01.554.322l1.902 5.232 5.03-8.447.86.511-5.57 9.354a.5.5 0 01-.9-.085l-2.12-5.832-6.119 1.036a.5.5 0 01-.516-.743zm38.468-.42l-5.759-9.957.866-.5 6.29 10.877a.5.5 0 01-.515.743l-6.12-1.036-2.119 5.832a.5.5 0 01-.9.085l-5.57-9.354.86-.511 5.03 8.447 1.902-5.232a.5.5 0 01.554-.322l5.48.928z" fill="#1AB744"/><path fill-rule="evenodd" clip-rule="evenodd" d="M20 1C11.847 1 5.24 7.608 5.24 15.76c0 8.154 6.607 14.762 14.76 14.762 8.153 0 14.76-6.608 14.76-14.761C34.76 7.608 28.154 1 20 1zM4.24 15.76C4.24 7.057 11.294 0 20 0s15.76 7.056 15.76 15.76c0 8.706-7.055 15.762-15.76 15.762S4.24 24.466 4.24 15.76z" fill="#1AB744"/><path fill-rule="evenodd" clip-rule="evenodd" d="M20 11.727c-.382-.816-.887-1.446-1.474-1.894a3.883 3.883 0 00-2.932-.775c-1.991.283-3.724 2.065-3.724 4.673 0 1.171.538 2.388 1.273 3.517.742 1.139 1.722 2.246 2.689 3.21a36.927 36.927 0 003.784 3.27l.066.05.017.013.005.003.001.001.295-.404-.295.404a.5.5 0 00.59 0L20 23.392l.294.405.002-.002.005-.003.017-.013.066-.05a35.804 35.804 0 001.124-.881 36.919 36.919 0 002.66-2.39c.967-.963 1.947-2.07 2.69-3.209.735-1.129 1.273-2.346 1.273-3.517 0-2.608-1.734-4.39-3.725-4.673a3.883 3.883 0 00-2.932.775c-.587.448-1.092 1.078-1.474 1.894zm0 11.039l-.024-.018a35.908 35.908 0 01-3.438-2.999c-.941-.938-1.868-1.989-2.557-3.047-.696-1.067-1.111-2.086-1.111-2.971 0-2.133 1.388-3.473 2.865-3.683a2.883 2.883 0 012.184.58c.671.512 1.27 1.39 1.595 2.745a.5.5 0 00.972 0c.326-1.354.924-2.233 1.595-2.746a2.883 2.883 0 012.184-.58c1.477.211 2.865 1.551 2.865 3.684 0 .885-.415 1.904-1.11 2.971-.69 1.058-1.617 2.11-2.558 3.047a35.912 35.912 0 01-3.438 2.999l-.024.018z" fill="#D84316"/></symbol><symbol fill="none" viewBox="0 0 325 158" id="successLetter"><path fill-rule="evenodd" clip-rule="evenodd" d="M218.733 145.796c5.974 0 10.835-4.89 10.835-10.9v-70.76c0-2.935-1.154-5.693-3.25-7.765-.491-.473-47.73-45.876-51.17-49.722-4.08-4.56-9.287-6.186-12.8-6.186-3.512 0-8.718 1.625-12.798 6.186-3.442 3.846-50.679 49.25-51.156 49.707-2.111 2.088-3.265 4.845-3.265 7.78v70.76c0 6.01 4.861 10.9 10.836 10.9h112.768z" fill="#FF8F00"/><g mask="url(#successLetter_a)" fill-rule="evenodd" clip-rule="evenodd"><path d="M210.973 13.713h-96.458V136.82h96.458V13.713z" fill="#fff"/><path d="M130.98 28.787h62.739c.803 0 1.454-.655 1.454-1.463s-.651-1.463-1.454-1.463h-62.74c-.803 0-1.454.655-1.454 1.463s.651 1.463 1.454 1.463zm0 6.688h62.739c.803 0 1.454-.655 1.454-1.463s-.651-1.463-1.454-1.463h-62.74c-.803 0-1.454.655-1.454 1.463s.651 1.463 1.454 1.463zm0 6.688h62.739c.803 0 1.454-.655 1.454-1.463s-.651-1.463-1.454-1.463h-62.74c-.803 0-1.454.655-1.454 1.463s.651 1.463 1.454 1.463zm0 6.687h62.739c.803 0 1.454-.654 1.454-1.462 0-.808-.651-1.463-1.454-1.463h-62.74c-.803 0-1.454.655-1.454 1.463s.651 1.463 1.454 1.463zm0 6.689h62.739c.803 0 1.454-.655 1.454-1.463s-.651-1.463-1.454-1.463h-62.74c-.803 0-1.454.655-1.454 1.463s.651 1.463 1.454 1.463zm0 6.688h62.739c.803 0 1.454-.655 1.454-1.463s-.651-1.463-1.454-1.463h-62.74c-.803 0-1.454.655-1.454 1.463s.651 1.463 1.454 1.463zm0 6.688h62.739c.803 0 1.454-.655 1.454-1.463s-.651-1.463-1.454-1.463h-62.74c-.803 0-1.454.655-1.454 1.463s.651 1.463 1.454 1.463zm0 6.688h62.739c.803 0 1.454-.655 1.454-1.463s-.651-1.463-1.454-1.463h-62.74c-.803 0-1.454.655-1.454 1.463s.651 1.463 1.454 1.463zm0 6.687h62.739c.803 0 1.454-.654 1.454-1.462 0-.808-.651-1.463-1.454-1.463h-62.74c-.803 0-1.454.655-1.454 1.463s.651 1.463 1.454 1.463zm0 6.689h62.739c.803 0 1.454-.655 1.454-1.463s-.651-1.463-1.454-1.463h-62.74c-.803 0-1.454.655-1.454 1.463s.651 1.463 1.454 1.463z" fill="#F7DC84"/><path d="M218.733 145.796c5.974 0 10.835-4.89 10.835-10.9V67.411l-67.22 35.614L95.13 67.411v67.485c0 6.01 4.861 10.9 10.836 10.9h112.768z" fill="#FFB302"/><path d="M282.74 60.13c.958 0 1.738.785 1.738 1.75 0 .963-.78 1.748-1.738 1.748A1.746 1.746 0 01281 61.88c0-.964.78-1.749 1.739-1.749zm0 6.424c2.562 0 4.647-2.097 4.647-4.675s-2.085-4.675-4.647-4.675c-2.563 0-4.647 2.097-4.647 4.675s2.084 4.675 4.647 4.675zM44.281 92.961c.958 0 1.739.785 1.739 1.75 0 .963-.78 1.748-1.739 1.748a1.746 1.746 0 01-1.738-1.749c0-.964.78-1.749 1.738-1.749zm0 6.424c2.563 0 4.647-2.097 4.647-4.675s-2.084-4.675-4.647-4.675-4.647 2.097-4.647 4.675 2.084 4.675 4.647 4.675z" fill="#06742E"/><path d="M72.09 79.29a5.18 5.18 0 01.742-.11l-.206-2.919a8.03 8.03 0 00-1.168.172l.632 2.856zm2.232.006l.654-2.851a7.807 7.807 0 00-1.17-.18l-.223 2.917c.248.019.497.058.739.114zm-3.618.536c.215-.125.442-.234.673-.325l-1.054-2.727a7.878 7.878 0 00-1.07.515l1.451 2.537zm5.003.015l1.463-2.529a7.835 7.835 0 00-1.064-.52l-1.071 2.721c.23.092.457.203.672.328zm-6.175.919c.17-.184.356-.356.551-.511l-1.807-2.294a8.07 8.07 0 00-.869.806l2.125 1.999zm7.339.021l2.137-1.985a8.01 8.01 0 00-.863-.81l-1.822 2.281c.195.157.38.33.548.514zm-8.185 1.215c.108-.223.235-.442.376-.65l-2.395-1.658a8.025 8.025 0 00-.597 1.028l2.616 1.28zm9.025.028l2.622-1.266a7.998 7.998 0 00-.59-1.032l-2.406 1.645c.14.208.266.427.374.653zm-9.469 1.4a5.03 5.03 0 01.168-.73l-2.776-.873c-.118.379-.208.77-.267 1.162l2.875.442zm9.904.032l2.878-.424a8.013 8.013 0 00-.26-1.163l-2.782.855c.073.239.128.486.164.732zM65.362 85.39l2.877-.433a5.108 5.108 0 01-.055-.752l-2.526-.023-.383.002c0 .418.03.815.087 1.206zm15.657.015c.059-.387.089-.785.09-1.183l-2.91-.008c0 .253-.02.507-.056.753l2.876.438zM66.057 87.66l2.62-1.269a5.19 5.19 0 01-.273-.701l-2.78.862c.116.377.261.75.433 1.108zm14.262.015c.172-.356.319-.73.436-1.109l-2.779-.865a4.978 4.978 0 01-.274.697l2.617 1.277zM67.386 89.62l2.133-1.988a5.153 5.153 0 01-.467-.59l-2.402 1.65c.221.326.469.638.736.928zm11.6.012c.27-.291.518-.604.74-.93l-2.4-1.652c-.14.206-.297.404-.468.587l2.129 1.995zm-9.759 1.47l1.459-2.533a4.918 4.918 0 01-.618-.424l-1.817 2.285c.307.247.635.473.976.671zm7.915.006c.342-.198.671-.423.978-.67l-1.813-2.288a5.014 5.014 0 01-.617.424l1.452 2.534zm-5.718.863l.647-2.853a4.959 4.959 0 01-.714-.222l-1.064 2.723c.366.145.747.264 1.13.352zm3.518.003a7.885 7.885 0 001.134-.35l-1.06-2.725a4.89 4.89 0 01-.713.22l.639 2.855zm-1.75.196c.196 0 .392-.007.585-.022l-.22-2.917a5.008 5.008 0 01-.745-.001l-.22 2.917c.198.016.398.023.6.023zm164.134-42.666l.433-2.894a4.9 4.9 0 00-1.375-.01l.387 2.9c.18-.025.37-.024.555.004zm-1.551.441c.14-.12.298-.22.466-.295l-1.184-2.673c-.423.19-.815.439-1.167.74l1.885 2.228zm2.539.023l1.92-2.197a4.856 4.856 0 00-1.152-.758l-1.231 2.65c.168.08.323.182.463.305zm-3.141.896c.053-.177.132-.345.234-.5l-2.428-1.611c-.256.39-.453.812-.588 1.257l2.782.854zm3.725.032l2.797-.805a4.882 4.882 0 00-.566-1.267l-2.456 1.567c.099.157.175.327.225.505zm-6.523 1.912l2.791-.823a1.968 1.968 0 01-.077-.55l-2.909-.065v.066c0 .466.066.928.195 1.372zm9.304.027c.132-.444.2-.905.203-1.37l-2.909-.018a1.955 1.955 0 01-.08.55l2.786.838zm-7.83 2.283l1.908-2.208a1.97 1.97 0 01-.362-.42l-2.447 1.58c.249.391.552.744.9 1.048zm6.343.019c.35-.302.654-.653.907-1.041l-2.438-1.598a1.96 1.96 0 01-.365.42l1.896 2.219zm-3.86 1.127l.414-2.896a1.9 1.9 0 01-.524-.156l-1.217 2.658c.421.195.868.328 1.327.394zm1.373.005a4.793 4.793 0 001.326-.386l-1.2-2.666a1.9 1.9 0 01-.528.154l.402 2.898z" fill="#1976D2"/><path d="M237.031 86.39c0 .939.757 1.7 1.69 1.7.934 0 1.691-.761 1.691-1.7 0-.94-.757-1.701-1.69-1.701-.934 0-1.691.761-1.691 1.7z" fill="#BF360C"/><path d="M251.072 69.919c0 .655.529 1.188 1.181 1.188s1.181-.533 1.181-1.188c0-.656-.529-1.188-1.181-1.188s-1.18.532-1.18 1.188z" fill="#06742E"/><path d="M78.198 107.605c0 1.224.988 2.217 2.205 2.217a2.21 2.21 0 002.204-2.217 2.21 2.21 0 00-2.204-2.218 2.211 2.211 0 00-2.205 2.218z" fill="#BF360C"/><path d="M49.142 71.626c0 .781.63 1.414 1.405 1.414a1.41 1.41 0 001.406-1.414c0-.78-.63-1.413-1.406-1.413a1.41 1.41 0 00-1.405 1.413zm252.386-3.481c0 .98.79 1.774 1.763 1.774.974 0 1.763-.794 1.763-1.774 0-.979-.79-1.773-1.763-1.773-.974 0-1.763.794-1.763 1.773z" fill="#06742E"/><path d="M242.369 79.708h58.984c.803 0 1.454-.655 1.454-1.463s-.651-1.463-1.454-1.463h-58.984c-.803 0-1.454.655-1.454 1.463s.65 1.463 1.454 1.463zm65.852 0h5.575c.802 0 1.454-.655 1.454-1.463s-.652-1.463-1.454-1.463h-5.575c-.803 0-1.454.655-1.454 1.463s.65 1.463 1.454 1.463zm12.673.014h2.343c.803 0 1.454-.655 1.454-1.464 0-.808-.651-1.463-1.454-1.463h-2.343c-.803 0-1.454.655-1.454 1.463 0 .809.65 1.464 1.454 1.464zm-78.687 16.366h37.33c.803 0 1.454-.655 1.454-1.463s-.651-1.463-1.454-1.463h-37.33c-.803 0-1.454.655-1.454 1.463s.651 1.463 1.454 1.463z" fill="#FFB302"/><path d="M104.416 157.264h115.866c1.07 0 1.939-.727 1.939-1.624 0-.898-.868-1.625-1.94-1.625H104.417c-1.071 0-1.939.727-1.939 1.625 0 .897.868 1.624 1.939 1.624zm130.223-11.421c.803 0 1.454-.727 1.454-1.624 0-.898-.651-1.625-1.454-1.625h-18.301c-.804 0-1.455.727-1.455 1.625 0 .897.651 1.624 1.455 1.624h18.3zm5.98 0h2.816c.803 0 1.454-.727 1.454-1.624 0-.898-.651-1.625-1.454-1.625h-2.816c-.803 0-1.454.727-1.454 1.625 0 .897.65 1.624 1.454 1.624zm7.583 0h.677c.803 0 1.454-.727 1.454-1.624 0-.898-.651-1.625-1.454-1.625h-.677c-.803 0-1.455.727-1.455 1.625 0 .897.652 1.624 1.455 1.624z" fill="#FFCA28"/><path d="M242.207 63.342h23.796c.803 0 1.454-.655 1.454-1.463 0-.809-.651-1.463-1.454-1.463h-23.796c-.803 0-1.454.654-1.454 1.463 0 .808.651 1.463 1.454 1.463z" fill="#FFB302"/><path d="M219.864 145.492c2.1 0 3.978-1.268 4.785-3.228.806-1.96.385-4.103-1.098-5.592-.042-.042-.042-.042-.818-.715-13.364-11.58-44.776-38.828-47.815-41.713-3.83-3.632-8.354-5.802-12.104-5.802-3.752 0-8.277 2.17-12.104 5.803-3.084 2.93-34.477 30.157-47.83 41.727-.76.658-.76.658-.795.693-1.49 1.496-1.911 3.638-1.104 5.599a5.167 5.167 0 004.784 3.228h114.099z" fill="#FFCA28"/><path d="M245.251 114.52c.568 0 1.108-.337 1.342-.897l2.767-6.633a1.467 1.467 0 00-.778-1.915 1.451 1.451 0 00-1.904.782l-2.767 6.633a1.467 1.467 0 00.778 1.916c.184.077.375.114.562.114z" fill="#BF360C"/><path d="M249.931 112.595c.569 0 1.109-.337 1.342-.897a1.467 1.467 0 00-.778-1.916L243.902 107a1.451 1.451 0 00-1.905.783c-.31.745.038 1.602.778 1.916l6.594 2.783c.184.078.375.114.562.114zM73.191 63.447c.568 0 1.108-.337 1.342-.897l2.767-6.633a1.467 1.467 0 00-.778-1.915 1.451 1.451 0 00-1.904.782l-2.767 6.633a1.466 1.466 0 00.778 1.916c.184.078.374.114.562.114z" fill="#BF360C"/><path d="M77.871 61.522c.569 0 1.109-.337 1.342-.897a1.467 1.467 0 00-.778-1.916l-6.594-2.783a1.452 1.452 0 00-1.904.783c-.31.745.038 1.603.778 1.916l6.594 2.783c.184.078.375.114.562.114zM296.46 93.576a.976.976 0 00.92-1.284l-1.13-3.413a.966.966 0 00-1.226-.617.977.977 0 00-.613 1.234l1.13 3.412a.97.97 0 00.919.668z" fill="#BF360C"/><path d="M294.199 92.437a.947.947 0 00.306-.05l3.392-1.137a.976.976 0 00.614-1.233.966.966 0 00-1.226-.617l-3.392 1.136a.976.976 0 00.306 1.901z" fill="#BF360C"/><path d="M3.23 79.022a.976.976 0 00.92-1.284l-1.129-3.413a.966.966 0 00-1.226-.617.976.976 0 00-.614 1.233l1.13 3.413a.97.97 0 00.92.668z" fill="#1976D2"/><path d="M.97 77.883a.947.947 0 00.306-.05l3.392-1.137a.976.976 0 00.614-1.233.966.966 0 00-1.226-.617L.664 75.982a.976.976 0 00.306 1.901zm25.525.28l.328 1.353-1.952-.201 1.624-1.152zm1.595 3.44a.977.977 0 00.941-1.207l-.99-4.087a.967.967 0 00-1.5-.566l-4.905 3.48a.979.979 0 00.46 1.768l5.896.606a.96.96 0 00.098.005z" fill="#1976D2"/></g></symbol><symbol viewBox="0 0 20 20" id="thumbUpV1"><path fill-rule="evenodd" clip-rule="evenodd" d="M10.78 2.01c-.445-.076-.712.187-.712.464 0 4.414-3.69 7.41-6.977 7.41H1v6.775c3.157.04 4.637.459 5.731.896.198.08.377.156.548.23.793.34 1.397.598 2.721.598h5.614a.795.795 0 100-1.59.5.5 0 010-1h.863a.795.795 0 100-1.591.5.5 0 110-1h.864a.795.795 0 100-1.591.5.5 0 010-1h.863a.795.795 0 100-1.591h-6.909a.5.5 0 01-.483-.628l.002-.008.007-.027.027-.104.096-.389c.081-.33.187-.785.294-1.295.214-1.024.423-2.221.421-3.042 0-1.108-.523-1.457-.88-1.517zm1.156 6.01a41.3 41.3 0 00.28-1.246c.218-1.041.441-2.34.443-3.247 0-1.483-.772-2.343-1.712-2.503-.85-.144-1.879.362-1.879 1.45 0 3.84-3.219 6.41-5.977 6.41H.5a.5.5 0 00-.5.5v7.772a.5.5 0 00.5.5c3.406 0 4.851.425 5.86.828.174.07.34.14.503.211.821.354 1.599.688 3.137.688h5.614a1.795 1.795 0 001.538-2.721 1.795 1.795 0 00.864-2.591 1.796 1.796 0 00.863-2.591 1.795 1.795 0 00-.675-3.46h-6.268z"/></symbol><symbol viewBox="0 0 40 40" id="thumbUpV2Thin"><path fill-rule="evenodd" clip-rule="evenodd" d="M22.015 3c-.777-.019-1.515.63-1.515 1.733 0 3.546-1.785 7.257-4.064 10.065-1.144 1.41-2.428 2.612-3.705 3.466-1.09.729-2.21 1.227-3.252 1.352v13.511c2.055.305 3.52.61 4.77.869.41.085.797.165 1.173.239 1.596.313 3.047.52 5.426.52H31.87c.69 0 1.217-.075 1.56-.26a.845.845 0 00.35-.326c.076-.134.133-.326.133-.61a2.044 2.044 0 00-2.043-2.043.5.5 0 010-1h1.696a2.043 2.043 0 100-4.087.5.5 0 110-1h1.695a2.043 2.043 0 100-4.087.5.5 0 010-1h1.696c.46 0 .964-.336 1.386-.951.412-.603.657-1.354.657-1.94a2.044 2.044 0 00-2.043-2.044H23.392a.5.5 0 01-.46-.697l.001-.003.005-.011.02-.048.078-.189a31.341 31.341 0 001.04-3.034c.261-.915.493-1.913.608-2.86.116-.954.108-1.815-.078-2.477C23.944 3.732 22.794 3.02 22.015 3zm2.116 11.407a32.547 32.547 0 00.907-2.708c.27-.945.515-1.997.638-3.013.123-1.008.13-2.021-.107-2.869-.715-2.543-2.109-3.78-3.53-3.816-1.422-.036-2.539 1.155-2.539 2.732 0 3.238-1.648 6.733-3.841 9.435-1.092 1.346-2.304 2.476-3.484 3.265-1.189.795-2.299 1.213-3.196 1.213a.5.5 0 00-.5.5V33.56a.5.5 0 00.429.495c2.25.322 3.792.642 5.124.918.415.086.809.168 1.198.244 1.647.323 3.163.54 5.618.54H31.87c.715 0 1.459-.07 2.035-.382.3-.161.56-.39.742-.708.18-.316.266-.687.266-1.106 0-.808-.315-1.543-.829-2.088a3.044 3.044 0 001.696-5.087 3.044 3.044 0 001.678-5.106c.715-.18 1.302-.727 1.71-1.323.507-.741.832-1.686.832-2.505a3.044 3.044 0 00-3.043-3.044H24.13z"/><path fill-rule="evenodd" clip-rule="evenodd" d="M0 16.602a.5.5 0 01.5-.5h8.478a.5.5 0 01.5.5V36.95a.5.5 0 01-.5.5H.5a.5.5 0 01-.5-.5V16.602zm1 .5V36.45h7.478V17.102H1z"/><path fill-rule="evenodd" clip-rule="evenodd" d="M5.587 32.711a.848.848 0 100 1.697.848.848 0 000-1.697z"/></symbol><symbol viewBox="0 0 20 20" id="twitter"><path d="M0 3a3 3 0 013-3h14a3 3 0 013 3v14a3 3 0 01-3 3H3a3 3 0 01-3-3V3zm16 3.155a4.965 4.965 0 01-1.415.388 2.475 2.475 0 001.083-1.362 4.943 4.943 0 01-1.564.596 2.46 2.46 0 00-4.195 2.246 6.997 6.997 0 01-5.074-2.571 2.46 2.46 0 00.762 3.286 2.459 2.459 0 01-1.115-.307v.03c0 1.192.847 2.188 1.974 2.415a2.502 2.502 0 01-1.111.042 2.466 2.466 0 002.3 1.71A4.944 4.944 0 014 13.646a6.977 6.977 0 003.774 1.105c4.529 0 7.005-3.75 7.005-7.003 0-.107-.003-.213-.008-.319A5 5 0 0016 6.154z"/></symbol><symbol viewBox="0 0 20 17" id="twitterLogo"><path fill-rule="evenodd" clip-rule="evenodd" d="M19.999 1.925a8.275 8.275 0 01-2.357.646 4.124 4.124 0 001.804-2.27 8.238 8.238 0 01-2.606.994A4.091 4.091 0 0013.845 0a4.101 4.101 0 00-3.996 5.037A11.661 11.661 0 011.39.752a4.053 4.053 0 00-.555 2.063c0 1.425.725 2.679 1.825 3.415a4.098 4.098 0 01-1.859-.513v.05a4.107 4.107 0 003.292 4.026 4.17 4.17 0 01-1.853.07 4.11 4.11 0 003.834 2.85 8.24 8.24 0 01-5.096 1.755c-.332 0-.658-.02-.979-.057a11.628 11.628 0 006.29 1.843c7.548 0 11.675-6.25 11.675-11.673 0-.179-.005-.355-.012-.531a8.34 8.34 0 002.047-2.125h-.001z"/></symbol><symbol viewBox="0 0 32 32" id="twitterV3"><path d="M23.6 10.4a6.042 6.042 0 01-1.898.727 3.004 3.004 0 00-2.182-.93 2.96 2.96 0 00-2.982 2.908c.001.226.028.45.08.67a8.517 8.517 0 01-6.152-3.07 2.91 2.91 0 00-.408 1.455c0 .988.502 1.908 1.331 2.444a3.01 3.01 0 01-1.352-.371v.036a2.953 2.953 0 002.392 2.91 3.048 3.048 0 01-1.345.05 2.982 2.982 0 002.785 2.036 6.044 6.044 0 01-4.414 1.23 8.546 8.546 0 004.574 1.323 8.364 8.364 0 008.517-8.356v-.378A6.042 6.042 0 0024 11.564a6.036 6.036 0 01-1.716.465A2.96 2.96 0 0023.6 10.4z"/><path d="M16 0C7.163 0 0 7.163 0 16s7.163 16 16 16 16-7.163 16-16S24.837 0 16 0zm0 30.545C7.967 30.545 1.455 24.033 1.455 16 1.455 7.967 7.967 1.455 16 1.455c8.033 0 14.545 6.512 14.545 14.545 0 8.033-6.512 14.545-14.545 14.545z"/></symbol><symbol fill="none" viewBox="0 0 160 160" id="updateConfirmation"><path fill-rule="evenodd" clip-rule="evenodd" d="M0 7.583v130.565a2.667 2.667 0 002.667 2.667H111.7a2.668 2.668 0 002.667-2.667V7.583H0z" fill="#FFCA28"/><g mask="url(#updateConfirmation_a)"><path fill-rule="evenodd" clip-rule="evenodd" d="M114.368 5.58a5.58 5.58 0 00-5.58-5.58H5.58A5.58 5.58 0 000 5.58v6.932h114.368V5.58z" fill="#fff"/></g><path fill-rule="evenodd" clip-rule="evenodd" d="M9.717 6.697a1.828 1.828 0 11-3.655 0 1.828 1.828 0 013.655 0z" fill="#F4511F"/><path fill-rule="evenodd" clip-rule="evenodd" d="M15.656 6.697a1.828 1.828 0 11-3.655 0 1.828 1.828 0 013.655 0z" fill="#FFCA28"/><path fill-rule="evenodd" clip-rule="evenodd" d="M21.596 6.697a1.828 1.828 0 11-3.656 0 1.828 1.828 0 013.656 0z" fill="#36BF51"/><path fill-rule="evenodd" clip-rule="evenodd" d="M4.73 158.057h26.205c.535 0 .971.437.971.972a.974.974 0 01-.971.971H4.73a.975.975 0 01-.971-.971c0-.535.437-.972.971-.972zm16.34-9.593h16.788c.534 0 .971.437.971.972a.975.975 0 01-.971.971H21.07a.975.975 0 01-.971-.971c0-.535.437-.972.971-.972z" fill="#FFCA28"/><path fill-rule="evenodd" clip-rule="evenodd" d="M117.249 0h33.315c.535 0 .972.437.972.972a.974.974 0 01-.972.971H117.25a.975.975 0 01-.972-.971c0-.535.437-.972.972-.972zm5.333 9.592h3.917c.534 0 .971.438.971.972a.975.975 0 01-.971.971h-3.917a.975.975 0 01-.972-.971c0-.534.437-.972.972-.972zm8.593 0h15.028c.534 0 .972.438.972.972a.975.975 0 01-.972.971h-15.028a.975.975 0 01-.972-.971c0-.534.437-.972.972-.972z" fill="#36BF51"/><path fill-rule="evenodd" clip-rule="evenodd" d="M36.267 158.057h5.125c.534 0 .971.437.971.972a.975.975 0 01-.971.971h-5.125a.975.975 0 01-.971-.971c0-.535.437-.972.971-.972z" fill="#FFCA28"/><g mask="url(#updateConfirmation_b)" fill-rule="evenodd" clip-rule="evenodd"><path d="M6.062 36.986h102.11v-20.89H6.061v20.89z" fill="#FFA001"/><path d="M45.63 26.767v130.565A2.667 2.667 0 0048.297 160h109.034a2.668 2.668 0 002.667-2.667V26.767H45.63z" fill="#36BF51"/><path d="M157.905 26.767V155.11a2.668 2.668 0 01-2.667 2.667H46.668c-.36 0-.7-.074-1.013-.202A2.658 2.658 0 0048.298 160H157.33a2.668 2.668 0 002.667-2.667V26.767h-2.093z" fill="#1B9B4A"/><path d="M159.998 24.764a5.58 5.58 0 00-5.58-5.58H51.211a5.58 5.58 0 00-5.58 5.58v6.931h114.367v-6.931z" fill="#fff"/><path d="M55.348 25.88a1.828 1.828 0 11-3.656 0 1.828 1.828 0 013.656 0z" fill="#F4511F"/><path d="M61.287 25.88a1.828 1.828 0 11-3.655 0 1.828 1.828 0 013.655 0z" fill="#FFCA28"/><path d="M67.226 25.88a1.828 1.828 0 11-3.655 0 1.828 1.828 0 013.655 0z" fill="#36BF51"/><path d="M51.76 67.28h102.109V35.871H51.76V67.28zm0 16.31h102.109V73.027H51.76V83.59zm0 16.311h102.109V89.338H51.76v10.563zm0 16.312h102.109V105.65H51.76v10.563zm0 16.311h102.109V121.96H51.76v10.563zm0 16.311h102.109v-10.563H51.76v10.563z" fill="#1B9B4A"/><path d="M6.004 1.733h106.433c.145 0 .284.027.425.043A5.56 5.56 0 00108.788 0H5.58A5.58 5.58 0 000 5.58v6.93h2.037V5.7a3.967 3.967 0 013.967-3.967zm147.99 19.184H47.561c-.145 0-.284.027-.425.043a5.562 5.562 0 014.075-1.776h103.208a5.58 5.58 0 015.579 5.58v6.93h-2.037v-6.81a3.967 3.967 0 00-3.967-3.967z" fill="#ECEFF1"/><path d="M114.368 130.237H42.72v10.578h68.98a2.667 2.667 0 002.667-2.667v-7.911zm-71.646-9.13h71.646v-10.578H42.722v10.578zm0-19.709h71.646V90.82H42.722v10.578zm0-19.708h71.646V71.114H42.722V81.69zm0-19.708h71.646V51.404H42.722v10.578zm2.463-19.707h69.183V31.697H45.185v10.578z" fill="#FFCA28"/><path d="M2.038 12.511v123.823a2.667 2.667 0 002.666 2.667l108.626-.409c.36 0 .7-.073 1.013-.202a2.659 2.659 0 01-2.643 2.424H2.667A2.667 2.667 0 010 138.147V12.511h2.038z" fill="#FFA001"/><path d="M6.062 38.687h102.11v-6.99H6.061v6.99zm102.109 18.007H6.062V44.762h39.576v6.643h62.533v5.289zm0 19.708H6.062V64.47h39.576v6.643h62.533v5.289zm0 19.708H6.062V84.177h39.576v6.642h62.533v5.29zm0 19.708H6.062v-11.932h39.576v6.643h62.533v5.289zm0 19.708H6.062v-11.932h39.576v6.643h62.533v5.289z" fill="#FFA001"/></g></symbol><symbol viewBox="0 0 20 18" id="vimeo"><path d="M15.91 12.023c-2.72 3.54-5.02 5.31-6.902 5.31-1.166 0-2.152-1.078-2.958-3.235L4.437 8.167c-.6-2.155-1.24-3.234-1.927-3.234-.15 0-.673.315-1.569.944L0 4.662c.987-.87 1.96-1.737 2.919-2.607C4.235.915 5.223.317 5.88.255c1.557-.15 2.515.916 2.875 3.2.387 2.462.657 3.992.808 4.59.45 2.043.943 3.063 1.482 3.063.418 0 1.047-.662 1.887-1.987.837-1.325 1.285-2.333 1.345-3.025.12-1.144-.329-1.718-1.346-1.718-.479 0-.973.11-1.481.328.985-3.225 2.862-4.792 5.634-4.702 2.055.06 3.025 1.395 2.905 4.006-.089 1.95-1.451 4.622-4.08 8.013z" fill-rule="evenodd"/></symbol><symbol viewBox="0 0 20 18" id="wallet"><path d="M16.087 14.571c-2.047 0-3.712-1.73-3.712-3.857 0-2.126 1.665-3.857 3.712-3.857h2.063V5.143c0-.946-.74-1.714-1.65-1.714h-.825V1.714c0-.945-.74-1.714-1.65-1.714H2.475C1.25 0 .24.93.042 2.142c-.018.07-.042.139-.042.215V15.43C0 16.846 1.11 18 2.475 18H16.5c.91 0 1.65-.769 1.65-1.714V14.57h-2.063zm-14.437-12c0-.472.37-.857.825-.857h11.55V3.43H2.475c-.455 0-.825-.385-.825-.858z"/><path d="M19.181 8.143h-3.093c-1.365 0-2.475 1.154-2.475 2.571 0 1.418 1.11 2.572 2.475 2.572h3.093a.631.631 0 00.62-.643V8.786a.631.631 0 00-.62-.643zm-3.093 3.429c-.456 0-.825-.384-.825-.857 0-.474.37-.858.825-.858.455 0 .825.384.825.857 0 .474-.37.858-.825.858z"/></symbol><symbol fill="none" viewBox="0 0 20 20" id="weeklydeals"><path fill-rule="evenodd" clip-rule="evenodd" d="M1.74 3a.74.74 0 00-.74.74v9.086c0 .408.331.74.74.74h6.608a.5.5 0 010 1H1.739A1.74 1.74 0 010 12.825V3.74C0 2.78.779 2 1.74 2h14.869c.96 0 1.739.779 1.739 1.74v3.717a.5.5 0 11-1 0V3.739a.74.74 0 00-.74-.739H1.74z" fill="#fff"/><path fill-rule="evenodd" clip-rule="evenodd" d="M.471 2.549a.5.5 0 01.703-.078l8 6.41 8-6.385a.5.5 0 01.624.782L9.485 9.912a.5.5 0 01-.624 0L.549 3.252a.5.5 0 01-.078-.703z" fill="#fff"/><path fill-rule="evenodd" clip-rule="evenodd" d="M14.957 10.82a3.039 3.039 0 00-.755-.858 2.514 2.514 0 00-1.897-.502c-1.29.184-2.392 1.334-2.392 2.984 0 .755.345 1.52.791 2.204.452.694 1.047 1.365 1.628 1.944a22.194 22.194 0 002.275 1.967l.04.03.011.008.003.002h.001l.294-.403-.294.404a.5.5 0 00.589 0l-.294-.404.294.404.001-.001.003-.002.01-.008.041-.03.15-.113a22.174 22.174 0 002.125-1.854c.581-.58 1.176-1.25 1.628-1.944.446-.685.791-1.45.791-2.204 0-1.65-1.102-2.8-2.392-2.984a2.514 2.514 0 00-1.897.502 3.04 3.04 0 00-.755.859zm0 6.748a21.18 21.18 0 01-1.919-1.685c-.555-.553-1.097-1.168-1.496-1.78-.406-.624-.629-1.19-.629-1.66 0-1.174.757-1.883 1.532-1.993.388-.055.795.035 1.15.307.355.271.69.75.875 1.522a.5.5 0 00.973 0c.185-.771.52-1.25.876-1.522a1.51 1.51 0 011.149-.307c.775.11 1.532.82 1.532 1.994 0 .468-.223 1.035-.629 1.658-.4.614-.94 1.228-1.496 1.781a21.201 21.201 0 01-1.918 1.685z" fill="#FF8A65"/></symbol><symbol viewBox="0 0 20 15" id="youtube"><path d="M0 6.276C0 4.66.2 3.04.2 3.04s.195-1.375.795-1.984C1.755.259 2.755.284 3.2.2 4.8.045 10 0 10 0s4.203.005 7 .208c.392.047 1.245.05 2.005.847.6.607.795 1.985.795 1.985s.2 1.617.2 3.237V7.85c0 1.62-.2 3.238-.2 3.238s-.195 1.377-.795 1.985c-.76.797-1.613.8-2.005.847-2.797.202-7 .208-7 .208s-5.2-.047-6.8-.2c-.445-.084-1.445-.06-2.205-.855-.6-.61-.795-1.984-.795-1.984S0 9.47 0 7.85V6.276zM7.935 9.69V4.07l5.404 2.819-5.4 2.8h-.004z" fill-rule="evenodd"/></symbol><linearGradient id="badge_1_c" x1="21" y1="7" x2="21" y2="26" gradientUnits="userSpaceOnUse"><stop stop-color="#fff"/><stop offset="1" stop-color="#D1E6E2"/></linearGradient><linearGradient id="badge_2_c" x1="21.875" y1="8" x2="21.875" y2="25.514" gradientUnits="userSpaceOnUse"><stop stop-color="#fff"/><stop offset="1" stop-color="#FFDCC2"/></linearGradient><linearGradient id="badge_3_c" x1="21.5" y1="9" x2="21.5" y2="26.002" gradientUnits="userSpaceOnUse"><stop stop-color="#fff"/><stop offset="1" stop-color="#D1E6E2"/></linearGradient><linearGradient id="badge_4_c" x1="21.5" y1="9" x2="21.5" y2="26.333" gradientUnits="userSpaceOnUse"><stop stop-color="#fff"/><stop offset="1" stop-color="#D1E6E2"/></linearGradient><linearGradient id="badge_5_c" x1="21.727" y1="8" x2="21.727" y2="24.6" gradientUnits="userSpaceOnUse"><stop stop-color="#fff"/><stop offset="1" stop-color="#D1E6E2"/></linearGradient><clipPath id="badge_1_a"><path fill="#fff" d="M0 0h42.9v33H0z"/></clipPath><clipPath id="badge_2_a"><path fill="#fff" d="M0 0h42.9v33H0z"/></clipPath><clipPath id="badge_3_a"><path fill="#fff" d="M0 0h42.9v33H0z"/></clipPath><clipPath id="badge_4_a"><path fill="#fff" d="M0 0h42.9v33H0z"/></clipPath><clipPath id="badge_5_a"><path fill="#fff" d="M0 0h42.9v33H0z"/></clipPath><mask id="moto3Box_a" maskUnits="userSpaceOnUse" x="162" y="93" width="2" height="10"><path fill-rule="evenodd" clip-rule="evenodd" d="M.893 9.247V0H0v9.247h.893z" transform="translate(162.908 93.377)" fill="#fff"/></mask><mask id="motoHtmlBox_a" maskUnits="userSpaceOnUse" x="158" y="100" width="3" height="11"><path fill-rule="evenodd" clip-rule="evenodd" d="M1.494 10.37V0H0v10.37h1.494z" transform="translate(158.51 100.095)" fill="#fff"/></mask><mask id="successLetter_a" maskUnits="userSpaceOnUse" x="0" y="-1" width="325" height="160"><path fill-rule="evenodd" clip-rule="evenodd" d="M0 0h324.691v160H0V0z" transform="matrix(-1 0 0 1 324.691 -1)" fill="#fff"/></mask><mask id="updateConfirmation_a" maskUnits="userSpaceOnUse" x="0" y="0" width="115" height="13"><path fill-rule="evenodd" clip-rule="evenodd" d="M0 0v12.511h114.368V0H0z" fill="#fff"/></mask><mask id="updateConfirmation_b" maskUnits="userSpaceOnUse" x="0" y="0" width="160" height="160"><path fill-rule="evenodd" clip-rule="evenodd" d="M0 160h159.998V0H0v160z" fill="#fff"/></mask><style>.sprite-symbol-usage{display:none}.sprite-symbol-usage:target{display:inline}</style></defs><use id="badge_1-usage" xlink:href="#badge_1" class="sprite-symbol-usage"/><use id="badge_2-usage" xlink:href="#badge_2" class="sprite-symbol-usage"/><use id="badge_3-usage" xlink:href="#badge_3" class="sprite-symbol-usage"/><use id="badge_4-usage" xlink:href="#badge_4" class="sprite-symbol-usage"/><use id="badge_5-usage" xlink:href="#badge_5" class="sprite-symbol-usage"/><use id="behance-usage" xlink:href="#behance" class="sprite-symbol-usage"/><use id="cardsV2-usage" xlink:href="#cardsV2" class="sprite-symbol-usage"/><use id="cart-usage" xlink:href="#cart" class="sprite-symbol-usage"/><use id="cartBold-usage" xlink:href="#cartBold" class="sprite-symbol-usage"/><use id="cartEmpty-usage" xlink:href="#cartEmpty" class="sprite-symbol-usage"/><use id="check-usage" xlink:href="#check" class="sprite-symbol-usage"/><use id="checkV3-usage" xlink:href="#checkV3" class="sprite-symbol-usage"/><use id="close-usage" xlink:href="#close" class="sprite-symbol-usage"/><use id="cloudDownload-usage" xlink:href="#cloudDownload" class="sprite-symbol-usage"/><use id="copy-usage" xlink:href="#copy" class="sprite-symbol-usage"/><use id="device-desktop-usage" xlink:href="#device-desktop" class="sprite-symbol-usage"/><use id="device-smartphone-usage" xlink:href="#device-smartphone" class="sprite-symbol-usage"/><use id="device-tablet-usage" xlink:href="#device-tablet" class="sprite-symbol-usage"/><use id="dribble-usage" xlink:href="#dribble" class="sprite-symbol-usage"/><use id="email-usage" xlink:href="#email" class="sprite-symbol-usage"/><use id="exclamationMark-usage" xlink:href="#exclamationMark" class="sprite-symbol-usage"/><use id="eyeFill-usage" xlink:href="#eyeFill" class="sprite-symbol-usage"/><use id="facebook-usage" xlink:href="#facebook" class="sprite-symbol-usage"/><use id="facebookV2-usage" xlink:href="#facebookV2" class="sprite-symbol-usage"/><use id="facebookV3-usage" xlink:href="#facebookV3" class="sprite-symbol-usage"/><use id="fast-usage" xlink:href="#fast" class="sprite-symbol-usage"/><use id="feature-usage" xlink:href="#feature" class="sprite-symbol-usage"/><use id="flickr-usage" xlink:href="#flickr" class="sprite-symbol-usage"/><use id="gearWithCheck-usage" xlink:href="#gearWithCheck" class="sprite-symbol-usage"/><use id="github-usage" xlink:href="#github" class="sprite-symbol-usage"/><use id="google-usage" xlink:href="#google" class="sprite-symbol-usage"/><use id="heart-usage" xlink:href="#heart" class="sprite-symbol-usage"/><use id="heartBold-usage" xlink:href="#heartBold" class="sprite-symbol-usage"/><use id="heartFilled-usage" xlink:href="#heartFilled" class="sprite-symbol-usage"/><use id="instagram-usage" xlink:href="#instagram" class="sprite-symbol-usage"/><use id="linkArrowUp-usage" xlink:href="#linkArrowUp" class="sprite-symbol-usage"/><use id="linkedIn-usage" xlink:href="#linkedIn" class="sprite-symbol-usage"/><use id="linkedInV2-usage" xlink:href="#linkedInV2" class="sprite-symbol-usage"/><use id="linkedinV3-usage" xlink:href="#linkedinV3" class="sprite-symbol-usage"/><use id="liveDemo-usage" xlink:href="#liveDemo" class="sprite-symbol-usage"/><use id="message-usage" xlink:href="#message" class="sprite-symbol-usage"/><use id="monsterEye-usage" xlink:href="#monsterEye" class="sprite-symbol-usage"/><use id="monsterLogoText-usage" xlink:href="#monsterLogoText" class="sprite-symbol-usage"/><use id="moto3Box-usage" xlink:href="#moto3Box" class="sprite-symbol-usage"/><use id="motoHtmlBox-usage" xlink:href="#motoHtmlBox" class="sprite-symbol-usage"/><use id="one-usage" xlink:href="#one" class="sprite-symbol-usage"/><use id="one---usage" xlink:href="#one--" class="sprite-symbol-usage"/><use id="pause-usage" xlink:href="#pause" class="sprite-symbol-usage"/><use id="percents-usage" xlink:href="#percents" class="sprite-symbol-usage"/><use id="pigBank-usage" xlink:href="#pigBank" class="sprite-symbol-usage"/><use id="pinterest-usage" xlink:href="#pinterest" class="sprite-symbol-usage"/><use id="pinterestV3-usage" xlink:href="#pinterestV3" class="sprite-symbol-usage"/><use id="play-usage" xlink:href="#play" class="sprite-symbol-usage"/><use id="productComments-usage" xlink:href="#productComments" class="sprite-symbol-usage"/><use id="productDescription-usage" xlink:href="#productDescription" class="sprite-symbol-usage"/><use id="productIntro-usage" xlink:href="#productIntro" class="sprite-symbol-usage"/><use id="productReviews-usage" xlink:href="#productReviews" class="sprite-symbol-usage"/><use id="profileBold-usage" xlink:href="#profileBold" class="sprite-symbol-usage"/><use id="profileV2-usage" xlink:href="#profileV2" class="sprite-symbol-usage"/><use id="reddit-usage" xlink:href="#reddit" class="sprite-symbol-usage"/><use id="redditV2-usage" xlink:href="#redditV2" class="sprite-symbol-usage"/><use id="reviews-usage" xlink:href="#reviews" class="sprite-symbol-usage"/><use id="search-usage" xlink:href="#search" class="sprite-symbol-usage"/><use id="send-usage" xlink:href="#send" class="sprite-symbol-usage"/><use id="shoppingBag-usage" xlink:href="#shoppingBag" class="sprite-symbol-usage"/><use id="subscribed-usage" xlink:href="#subscribed" class="sprite-symbol-usage"/><use id="successLetter-usage" xlink:href="#successLetter" class="sprite-symbol-usage"/><use id="thumbUpV1-usage" xlink:href="#thumbUpV1" class="sprite-symbol-usage"/><use id="thumbUpV2Thin-usage" xlink:href="#thumbUpV2Thin" class="sprite-symbol-usage"/><use id="twitter-usage" xlink:href="#twitter" class="sprite-symbol-usage"/><use id="twitterLogo-usage" xlink:href="#twitterLogo" class="sprite-symbol-usage"/><use id="twitterV3-usage" xlink:href="#twitterV3" class="sprite-symbol-usage"/><use id="updateConfirmation-usage" xlink:href="#updateConfirmation" class="sprite-symbol-usage"/><use id="vimeo-usage" xlink:href="#vimeo" class="sprite-symbol-usage"/><use id="wallet-usage" xlink:href="#wallet" class="sprite-symbol-usage"/><use id="weeklydeals-usage" xlink:href="#weeklydeals" class="sprite-symbol-usage"/><use id="youtube-usage" xlink:href="#youtube" class="sprite-symbol-usage"/></svg>