<svg width="30" height="30" xmlns="http://www.w3.org/2000/svg"><g fill="none" fill-rule="evenodd"><rect fill="#DDE3E6" width="30" height="30" rx="3" fill-opacity="inherit"/><path fill="#E44D26" d="M7.664 23.004 6.03 5.03h17.94L22.335 23l-7.346 2z"/><path fill="#F16529" d="m15 23.472 5.936-1.615L22.332 6.5H15z"/><path fill="#EBEBEB" d="M15 13.166h-2.971l-.206-2.257H15V8.704H9.369l.054.592.552 6.074H15zm0 5.724-.01.003-2.5-.662-.16-1.759h-2.255l.315 3.462 4.6 1.253.01-.003z"/><path fill="#FFF" d="M14.992 13.166v2.204h2.765l-.26 2.86-2.505.663v2.293l4.604-1.252.034-.373.527-5.803.055-.592h-.605zm0-4.462v2.205h5.424l.045-.496.103-1.117.053-.592z"/></g></svg>